Source-HROTx_VROTx_DPTHx.ufo
<glyph name="quotedbl" format="2">
  <advance width="366"/>
  <unicode hex="0022"/>
  <outline>
    <contour>
      <point x="192" y="266" type="curve" name="EVFVTJUV"/>
      <point x="220" y="273" name="PMFATXSO"/>
      <point x="251" y="276" name="QOYJDMDH"/>
      <point x="283" y="278" type="curve" name="QALGNULM"/>
      <point x="296" y="396" name="IZWGUSOZ"/>
      <point x="347" y="464" name="ZADWENJV"/>
      <point x="434" y="477" type="curve" name="AVJUDPEJ"/>
      <point x="395" y="476" name="UCMJBLIP"/>
      <point x="358" y="471" name="YXJAPLRB"/>
      <point x="324" y="464" type="curve" name="VVFOKXFV"/>
      <point x="243" y="452" name="ITFFOEUI"/>
      <point x="198" y="384" name="WYOQOPBT"/>
    </contour>
    <contour>
      <point x="340" y="278" type="curve" name="FOQCWLRM"/>
      <point x="374" y="276" name="XTGBYHFC"/>
      <point x="410" y="273" name="ITVPZLSS"/>
      <point x="447" y="266" type="curve" name="NLHAAEWI"/>
      <point x="461" y="384" name="HWVADHWE"/>
      <point x="512" y="452" name="UJZCGVVM"/>
      <point x="600" y="464" type="curve" name="BJYAGNWU"/>
      <point x="555" y="471" name="PQDEADLN"/>
      <point x="511" y="476" name="TUYEDZTR"/>
      <point x="471" y="477" type="curve" name="HHURZUGO"/>
      <point x="390" y="464" name="HQPSVKNJ"/>
      <point x="346" y="396" name="AGSEPNXI"/>
    </contour>
  </outline>
</glyph>
<glyph name="percent" format="2">
  <advance width="723"/>
  <unicode hex="0025"/>
  <outline>
    <contour>
      <point x="183" y="244" type="curve" name="ODEZRPYM"/>
      <point x="261" y="254" name="GXSJKHQY"/>
      <point x="355" y="338" name="THAFYUIW"/>
      <point x="436" y="398" type="curve" smooth="yes" name="DUQVBBNM"/>
      <point x="517" y="459" name="IZKDWQEO"/>
      <point x="545" y="466" name="AYFDDNSM"/>
      <point x="467" y="456" type="curve" smooth="yes" name="EOCAKEHY"/>
      <point x="388" y="447" name="BTVMVHPM"/>
      <point x="252" y="425" name="TOCUQTDQ"/>
      <point x="171" y="366" type="curve" smooth="yes" name="UOPZMRUE"/>
      <point x="90" y="305" name="AGADNCYM"/>
      <point x="104" y="234" name="LMOAGFDN"/>
      <point x="183" y="244" type="curve" name="NEGEVGBO"/>
      <point x="183" y="244" name="NUYALHIW"/>
      <point x="183" y="244" name="QFPNKZTK"/>
    </contour>
    <contour>
      <point x="116" y="-26" type="curve" name="PBSVJATX"/>
      <point x="147" y="-22" name="IDTJSFCY"/>
      <point x="179" y="-19" name="NFFVYXKN"/>
      <point x="211" y="-18" type="curve" name="JDWFHOFB"/>
      <point x="326" y="267" name="YRUEDCMW"/>
      <point x="539" y="428" name="UADLVFYY"/>
      <point x="836" y="455" type="curve" name="CKCWVDKJ"/>
      <point x="801" y="459" name="BMCYJTUR"/>
      <point x="765" y="461" name="CBEZMPKW"/>
      <point x="730" y="463" type="curve" name="OFLWMSBR"/>
      <point x="436" y="431" name="OPWQDTIC"/>
      <point x="228" y="264" name="TAPFQKKJ"/>
    </contour>
    <contour>
      <point x="246" y="340" type="curve" name="YEBCKDJJ"/>
      <point x="218" y="336" name="IVWMLDOY"/>
      <point x="220" y="357" name="BLDOGXIH"/>
      <point x="255" y="382" type="curve" smooth="yes" name="WATACVLF"/>
      <point x="290" y="408" name="LEFWVALE"/>
      <point x="331" y="421" name="YCUFSAEB"/>
      <point x="359" y="425" type="curve" smooth="yes" name="YBYEDOWN"/>
      <point x="388" y="428" name="MITFRWRT"/>
      <point x="381" y="419" name="VKQEACIU"/>
      <point x="346" y="394" type="curve" smooth="yes" name="OCRKKIZK"/>
      <point x="311" y="368" name="CJGTPRMG"/>
      <point x="275" y="343" name="EYIVCHYN"/>
      <point x="246" y="340" type="curve" name="DCTPUHVN"/>
      <point x="246" y="340" name="JYFXUJOM"/>
      <point x="246" y="340" name="NCFDZHPO"/>
    </contour>
    <contour>
      <point x="498" y="-44" type="curve" name="VYUCDSSR"/>
      <point x="591" y="-54" name="HBKLRHTY"/>
      <point x="664" y="58" name="FPTLHBFY"/>
      <point x="707" y="173" type="curve" smooth="yes" name="NEBQZEJU"/>
      <point x="750" y="286" name="XHOIEWUJ"/>
      <point x="741" y="348" name="QSXTDIPO"/>
      <point x="648" y="357" type="curve" smooth="yes" name="YBYJBUPV"/>
      <point x="556" y="367" name="XBJKWSYO"/>
      <point x="438" y="319" name="XFXDVGJY"/>
      <point x="395" y="205" type="curve" smooth="yes" name="ZOZVBVAX"/>
      <point x="352" y="91" name="JNVXYFGT"/>
      <point x="406" y="-34" name="GOVFRRXY"/>
      <point x="498" y="-44" type="curve" name="XWCLZMTK"/>
      <point x="498" y="-44" name="PGYWWPNS"/>
      <point x="498" y="-44" name="YTPTFVZM"/>
    </contour>
    <contour>
      <point x="521" y="109" type="curve" name="ZXJJWDYX"/>
      <point x="488" y="112" name="VJMKLGJW"/>
      <point x="476" y="152" name="ZDDEGLGX"/>
      <point x="494" y="201" type="curve" smooth="yes" name="WFNZQMMY"/>
      <point x="513" y="249" name="OIUDZFPK"/>
      <point x="548" y="272" name="SOCBKLJT"/>
      <point x="581" y="268" type="curve" smooth="yes" name="ZCXMDSRR"/>
      <point x="615" y="265" name="AUEKXZMS"/>
      <point x="620" y="237" name="PQZNHRUO"/>
      <point x="602" y="188" type="curve" smooth="yes" name="DUZRNUJC"/>
      <point x="583" y="140" name="OTUEDTVU"/>
      <point x="555" y="105" name="OFVJHMIQ"/>
      <point x="521" y="109" type="curve" name="IVBNGEYH"/>
      <point x="521" y="109" name="QYGCKMNB"/>
      <point x="521" y="109" name="CTDLKJXZ"/>
    </contour>
  </outline>
</glyph>
<glyph name="ampersand" format="2">
  <advance width="448"/>
  <unicode hex="0026"/>
  <outline>
    <contour>
      <point x="389" y="184" type="curve" name="UWCKJGGV"/>
      <point x="398" y="206" name="WYWGSPAE"/>
      <point x="407" y="227" name="GHFTXBWD"/>
      <point x="417" y="246" type="curve" name="NFKSIWHS"/>
      <point x="433" y="244" name="TCALRSFM"/>
      <point x="450" y="242" name="WCRRULJN"/>
      <point x="466" y="239" type="curve" name="XYMKGKMO"/>
      <point x="487" y="278" name="FWVQQHYF"/>
      <point x="512" y="314" name="LIGUTPGQ"/>
      <point x="542" y="341" type="curve" name="LPGOCSIS"/>
      <point x="526" y="344" name="VQDQBOVE"/>
      <point x="508" y="347" name="XTHMHXTS"/>
      <point x="493" y="349" type="curve" name="LOGAPJBX"/>
      <point x="507" y="362" name="ZKKIGVZC"/>
      <point x="523" y="376" name="HFRVQRCB"/>
      <point x="539" y="387" type="curve" name="XYMFOMIH"/>
      <point x="496" y="393" name="TQOBWPEN"/>
      <point x="453" y="397" name="UWNOPFPT"/>
      <point x="414" y="398" type="curve" name="USHRPNIF"/>
      <point x="397" y="388" name="RZAPTRNM"/>
      <point x="381" y="375" name="YEICMZMJ"/>
      <point x="367" y="361" type="curve" name="JKHMQELL"/>
      <point x="295" y="364" name="GGASUPXB"/>
      <point x="264" y="368" name="XFZBRVTV"/>
      <point x="291" y="388" type="curve" smooth="yes" name="FPUJDRAI"/>
      <point x="332" y="419" name="XNRWMJJM"/>
      <point x="425" y="424" name="EOXDTIVS"/>
      <point x="486" y="402" type="curve" name="DLJFTQAN"/>
      <point x="524" y="425" name="WCCSDGDA"/>
      <point x="567" y="442" name="YDVAOPDW"/>
      <point x="615" y="451" type="curve" name="AIDYSDTN"/>
      <point x="508" y="473" name="ZSPZNRAP"/>
      <point x="311" y="462" name="TIMWABYF"/>
      <point x="192" y="380" type="curve" smooth="yes" name="JXJOMDGO"/>
      <point x="151" y="353" name="ETFHYWLE"/>
      <point x="136" y="324" name="MLTYLTDQ"/>
      <point x="149" y="303" type="curve" name="DLKZRPSD"/>
      <point x="89" y="270" name="MZRMIFPB"/>
      <point x="46" y="221" name="USUMWQIB"/>
      <point x="24" y="157" type="curve" smooth="yes" name="JXQQPHMY"/>
      <point x="-15" y="39" name="TJDADQSW"/>
      <point x="44" y="-46" name="QZKQZTNP"/>
      <point x="146" y="-43" type="curve" smooth="yes" name="VFFCJOTL"/>
      <point x="254" y="-40" name="PLDXEKLY"/>
      <point x="342" y="60" name="ORSVLLSX"/>
      <point x="389" y="184" type="curve" name="TDMWLAYD"/>
      <point x="389" y="184" name="IFUYEGZX"/>
      <point x="389" y="184" name="ARZRNAPQ"/>
    </contour>
    <contour>
      <point x="144" y="197" type="curve" name="SIYQHMWV"/>
      <point x="164" y="251" name="UNLEGDCB"/>
      <point x="212" y="261" name="GSZHTEJL"/>
      <point x="292" y="258" type="curve" name="CTKZPHHW"/>
      <point x="284" y="243" name="PKDJAHMW"/>
      <point x="276" y="226" name="IMOSHBSH"/>
      <point x="269" y="209" type="curve" smooth="yes" name="BMCAUHNY"/>
      <point x="251" y="164" name="MJAIIQPY"/>
      <point x="217" y="135" name="HATVCKWL"/>
      <point x="178" y="135" type="curve" smooth="yes" name="RJSPBNLG"/>
      <point x="143" y="133" name="PZTFEKSE"/>
      <point x="130" y="162" name="CDWVHRZQ"/>
      <point x="144" y="197" type="curve" name="TNBJYVAD"/>
      <point x="144" y="197" name="GQSRNTNI"/>
      <point x="144" y="197" name="YRVSOBZF"/>
    </contour>
  </outline>
</glyph>
<glyph name="quotesingle" format="2">
  <advance width="211"/>
  <unicode hex="0027"/>
  <outline>
    <contour>
      <point x="190" y="270" type="curve" name="UAEQMGQS"/>
      <point x="219" y="275" name="DZRAGERI"/>
      <point x="252" y="275" name="BYSQPENC"/>
      <point x="289" y="270" type="curve" name="BTSPJKUW"/>
      <point x="302" y="388" name="ZOWUMEAZ"/>
      <point x="354" y="455" name="ZNJDBIKS"/>
      <point x="441" y="468" type="curve" name="QOLZUEIQ"/>
      <point x="396" y="476" name="GLXXBLJU"/>
      <point x="356" y="476" name="MCUYKJOW"/>
      <point x="322" y="468" type="curve" name="VNDZIQVT"/>
      <point x="241" y="455" name="QHBSXILA"/>
      <point x="196" y="388" name="IOAAKJSO"/>
    </contour>
  </outline>
</glyph>
<glyph name="period" format="2">
  <advance width="205"/>
  <unicode hex="002E"/>
  <outline>
    <contour>
      <point x="22" y="-12" type="curve" name="HPDBMCYC"/>
      <point x="63" y="-12" name="FUDAENYK"/>
      <point x="105" y="43" name="ALETJSTM"/>
      <point x="133" y="83" type="curve" smooth="yes" name="FWPPLZNK"/>
      <point x="161" y="123" name="STBCOUBB"/>
      <point x="167" y="133" name="IFAZQYYU"/>
      <point x="126" y="134" type="curve" smooth="yes" name="GAPZUYKF"/>
      <point x="84" y="134" name="YGWJUBBU"/>
      <point x="12" y="122" name="ZCFJQCCK"/>
      <point x="-16" y="83" type="curve" smooth="yes" name="PDXDJYTK"/>
      <point x="-45" y="43" name="DINOKSWK"/>
      <point x="-19" y="-12" name="VDMUFHVB"/>
      <point x="22" y="-12" type="curve" name="TWFHQTGS"/>
      <point x="22" y="-12" name="RKAKJCEB"/>
      <point x="22" y="-12" name="RIECIRXD"/>
    </contour>
  </outline>
</glyph>
<glyph name="four" format="2">
  <advance width="413"/>
  <unicode hex="0034"/>
  <outline>
    <contour>
      <point x="2" y="102" type="curve" name="YIXCNHBW"/>
      <point x="59" y="116" name="SQGNSGKM"/>
      <point x="123" y="123" name="JWWQHQRZ"/>
      <point x="190" y="122" type="curve" name="QSIKQYVO"/>
      <point x="180" y="76" name="MTUKLCXP"/>
      <point x="172" y="26" name="AFKCIPCR"/>
      <point x="168" y="-29" type="curve" name="SPTMINLY"/>
      <point x="208" y="-29" name="PFHVWYME"/>
      <point x="252" y="-32" name="KHSDEIZQ"/>
      <point x="295" y="-37" type="curve" name="FEXLNFNA"/>
      <point x="299" y="17" name="FDOVSQWE"/>
      <point x="307" y="68" name="YLTWRZGH"/>
      <point x="317" y="114" type="curve" name="UIVZWWCN"/>
      <point x="341" y="111" name="DHAEXAML"/>
      <point x="368" y="106" name="GHVMOZWH"/>
      <point x="393" y="102" type="curve" name="MIPIXCBJ"/>
      <point x="406" y="157" name="VLMLARUL"/>
      <point x="425" y="208" name="ZMIAPIKV"/>
      <point x="448" y="249" type="curve" name="MVATSVKX"/>
      <point x="423" y="254" name="RGCYUIFP"/>
      <point x="396" y="258" name="TGOEAXVS"/>
      <point x="372" y="261" type="curve" name="ZTXHEJYS"/>
      <point x="429" y="363" name="QKUTOKDH"/>
      <point x="519" y="425" name="DUQQQIKR"/>
      <point x="635" y="444" type="curve" name="NOZNRRFR"/>
      <point x="569" y="452" name="XWUTYUZM"/>
      <point x="506" y="454" name="JMADEXJH"/>
      <point x="448" y="451" type="curve" name="JQPIENOT"/>
      <point x="288" y="430" name="GGHFWAOB"/>
      <point x="153" y="361" name="CNBPDQXQ"/>
      <point x="57" y="249" type="curve" name="RWJFWNYJ"/>
      <point x="34" y="208" name="AXWPYLJE"/>
      <point x="15" y="157" name="EQJJMFJR"/>
    </contour>
    <contour>
      <point x="172" y="266" type="curve" name="QBJKWZCN"/>
      <point x="229" y="327" name="LDLVLZVX"/>
      <point x="299" y="375" name="VYUCQHNG"/>
      <point x="376" y="406" type="curve" name="ACMOKOQU"/>
      <point x="323" y="375" name="QDFOIILC"/>
      <point x="279" y="328" name="WEKGOZIZ"/>
      <point x="245" y="269" type="curve" name="LQZDJKJQ"/>
      <point x="221" y="269" name="KYTMYXHX"/>
      <point x="195" y="268" name="IIHJJCTB"/>
    </contour>
  </outline>
</glyph>
<glyph name="five" format="2">
  <advance width="367"/>
  <unicode hex="0035"/>
  <outline>
    <contour>
      <point x="72" y="251" type="curve" name="IKHYTIQU"/>
      <point x="177" y="292" name="MAJGGSYH"/>
      <point x="256" y="277" name="CKEAUSCI"/>
      <point x="229" y="205" type="curve" smooth="yes" name="LWTWNHEW"/>
      <point x="200" y="134" name="IPYGAKSG"/>
      <point x="114" y="139" name="JYCGUNHK"/>
      <point x="30" y="164" type="curve" name="MUUBRXQT"/>
      <point x="12" y="112" name="QIQIFICA"/>
      <point x="-1" y="50" name="DETWQXRX"/>
      <point x="-8" y="-17" type="curve" name="VWSIZMBU"/>
      <point x="128" y="-69" name="JAJIVCBA"/>
      <point x="287" y="8" name="UKWAQDON"/>
      <point x="363" y="195" type="curve" smooth="yes" name="IRGJHKNB"/>
      <point x="415" y="326" name="VZXUYLHR"/>
      <point x="387" y="374" name="BAFBLHZQ"/>
      <point x="269" y="368" type="curve" name="MUBHAIFK"/>
      <point x="287" y="382" name="BQUXZLEF"/>
      <point x="308" y="396" name="DKXONOCL"/>
      <point x="329" y="406" type="curve" name="XGURWCWQ"/>
      <point x="380" y="408" name="LBDRHWCX"/>
      <point x="438" y="403" name="ZIHYMNUC"/>
      <point x="496" y="395" type="curve" name="DENRQXTC"/>
      <point x="533" y="416" name="FVHTSAFL"/>
      <point x="577" y="431" name="ETXKRCQS"/>
      <point x="624" y="438" type="curve" name="HGTMVYUA"/>
      <point x="527" y="453" name="LGGXRJEY"/>
      <point x="436" y="454" name="RHEEYHFI"/>
      <point x="359" y="440" type="curve" name="XFETQPHI"/>
      <point x="234" y="420" name="KAKAVPYM"/>
      <point x="137" y="355" name="EHZGRAWQ"/>
    </contour>
  </outline>
</glyph>
<glyph name="six" format="2">
  <advance width="399"/>
  <unicode hex="0036"/>
  <outline>
    <contour>
      <point x="496" y="385" type="curve" name="XXXSDYMD"/>
      <point x="535" y="411" name="RESDQBMY"/>
      <point x="581" y="429" name="VRIPSTTF"/>
      <point x="631" y="440" type="curve" name="PSUQGXST"/>
      <point x="477" y="483" name="QXWCIZXV"/>
      <point x="209" y="490" name="OEDFHOPB"/>
      <point x="69" y="275" type="curve" smooth="yes" name="HEMZCZLA"/>
      <point x="-36" y="114" name="LTIUKOMN"/>
      <point x="37" y="-39" name="CETEAWCV"/>
      <point x="148" y="-40" type="curve" smooth="yes" name="AABCEIGZ"/>
      <point x="256" y="-40" name="XDFMUSAN"/>
      <point x="346" y="84" name="ZUVKSUWZ"/>
      <point x="399" y="205" type="curve" smooth="yes" name="KBRGZOMR"/>
      <point x="482" y="396" name="VRLMYGGG"/>
      <point x="363" y="411" name="RZUMOBFQ"/>
      <point x="229" y="351" type="curve" name="DKLZBVRH"/>
      <point x="304" y="421" name="MFDIYTMK"/>
      <point x="429" y="430" name="GPGRZPRQ"/>
      <point x="496" y="385" type="curve" name="KFQDSRDJ"/>
      <point x="496" y="385" name="ZCVDZXWD"/>
      <point x="496" y="385" name="NMKHXFMG"/>
    </contour>
    <contour>
      <point x="176" y="140" type="curve" name="RGWNONTK"/>
      <point x="142" y="140" name="GJNQYAZH"/>
      <point x="130" y="176" name="BCEVNZMN"/>
      <point x="150" y="222" type="curve" smooth="yes" name="WKQDMNPY"/>
      <point x="168" y="265" name="ZNQHNEQX"/>
      <point x="206" y="290" name="AIZMCUYL"/>
      <point x="240" y="290" type="curve" smooth="yes" name="RVOFEHDQ"/>
      <point x="275" y="290" name="USFPYLGC"/>
      <point x="283" y="264" name="UHJTVWFN"/>
      <point x="264" y="219" type="curve" smooth="yes" name="VRPGVAJM"/>
      <point x="245" y="175" name="AGKDWDQP"/>
      <point x="211" y="140" name="VXENSWIB"/>
      <point x="176" y="140" type="curve" name="RKRDHPUN"/>
      <point x="176" y="140" name="KDOLSLAG"/>
      <point x="176" y="140" name="ZECEUEFJ"/>
    </contour>
  </outline>
</glyph>
<glyph name="seven" format="2">
  <advance width="368"/>
  <unicode hex="0037"/>
  <outline>
    <contour>
      <point x="644" y="435" type="curve" name="AYSCDFFV"/>
      <point x="523" y="456" name="CYDQYXOY"/>
      <point x="414" y="456" name="WYXYCGGZ"/>
      <point x="323" y="435" type="curve" name="GNXMGGMT"/>
      <point x="276" y="427" name="IXUCVSQK"/>
      <point x="232" y="412" name="DBJQXAZH"/>
      <point x="195" y="391" type="curve" name="JGKGAFDS"/>
      <point x="250" y="403" name="YEPHFQXA"/>
      <point x="312" y="409" name="ESCZRMLQ"/>
      <point x="378" y="406" type="curve" name="MZOOHEXL"/>
      <point x="199" y="339" name="BDJCGOZB"/>
      <point x="76" y="186" name="DLVAHMPP"/>
      <point x="11" y="-41" type="curve" name="CERNDSQQ"/>
      <point x="48" y="-34" name="JBFLPXPB"/>
      <point x="89" y="-31" name="NABVUJSR"/>
      <point x="131" y="-31" type="curve" name="SIWDVRMP"/>
      <point x="202" y="188" name="GLBPXDVB"/>
      <point x="332" y="331" name="OLVHWJBV"/>
      <point x="516" y="391" type="curve" name="YRUIXLGB"/>
      <point x="553" y="412" name="BMWHWLBK"/>
      <point x="598" y="427" name="MAHHBMKY"/>
    </contour>
  </outline>
</glyph>
<glyph name="eight" format="2">
  <advance width="396"/>
  <unicode hex="0038"/>
  <outline>
    <contour>
      <point x="141" y="-43" type="curve" name="DOFMKEDY"/>
      <point x="243" y="-43" name="GMCIIINK"/>
      <point x="336" y="55" name="EISBSPGO"/>
      <point x="380" y="174" type="curve" smooth="yes" name="MKVKRRBB"/>
      <point x="404" y="241" name="YCDHPJRS"/>
      <point x="404" y="283" name="BYHRSRAF"/>
      <point x="381" y="309" type="curve" name="ABYWJPRQ"/>
      <point x="429" y="326" name="BOJHESWY"/>
      <point x="475" y="353" name="UCDYIMDR"/>
      <point x="515" y="382" type="curve" smooth="yes" name="OXXMJZUI"/>
      <point x="596" y="437" name="LULWKPZY"/>
      <point x="593" y="459" name="HLNFOSPY"/>
      <point x="496" y="459" type="curve" smooth="yes" name="OUGICIXE"/>
      <point x="397" y="460" name="IAGLPLVV"/>
      <point x="255" y="437" name="VLBPLNCV"/>
      <point x="175" y="382" type="curve" smooth="yes" name="ZFVYYODD"/>
      <point x="134" y="353" name="JNILWGOC"/>
      <point x="125" y="326" name="AEWDVHLQ"/>
      <point x="138" y="310" type="curve" name="CHVXHYMR"/>
      <point x="88" y="283" name="LJRFXHQL"/>
      <point x="43" y="241" name="AHHDNXHS"/>
      <point x="19" y="174" type="curve" smooth="yes" name="RTAZHXOF"/>
      <point x="-24" y="55" name="CTFZRPUR"/>
      <point x="36" y="-42" name="DQHLAGKS"/>
      <point x="141" y="-43" type="curve" name="AYCRFBKV"/>
      <point x="141" y="-43" name="CVNROQOA"/>
      <point x="141" y="-43" name="FWKBVASS"/>
    </contour>
    <contour>
      <point x="289" y="359" type="curve" name="EOYEYDXK"/>
      <point x="259" y="359" name="KRSHIPAQ"/>
      <point x="254" y="374" name="BZUFEZGD"/>
      <point x="279" y="391" type="curve" smooth="yes" name="TOYZQIDQ"/>
      <point x="302" y="409" name="WPNUVNRR"/>
      <point x="340" y="420" name="MYZPRHSB"/>
      <point x="371" y="419" type="curve" smooth="yes" name="RQGKYOET"/>
      <point x="401" y="419" name="PASTMJFG"/>
      <point x="403" y="409" name="PROVXJWD"/>
      <point x="379" y="391" type="curve" smooth="yes" name="IOHRTIRM"/>
      <point x="355" y="374" name="CCYOLLDZ"/>
      <point x="318" y="359" name="QPPUAFBP"/>
      <point x="289" y="359" type="curve" name="ZYRTIEPK"/>
      <point x="289" y="359" name="FWNSCVWC"/>
      <point x="289" y="359" name="KKIHZGKD"/>
    </contour>
    <contour>
      <point x="169" y="133" type="curve" name="DMBCBELI"/>
      <point x="136" y="133" name="CHLABBWP"/>
      <point x="120" y="164" name="LLNSAIUO"/>
      <point x="135" y="203" type="curve" smooth="yes" name="GACEOBPY"/>
      <point x="151" y="244" name="EQYIXOGQ"/>
      <point x="188" y="270" name="NPSASKPS"/>
      <point x="222" y="270" type="curve" smooth="yes" name="IXJATNYN"/>
      <point x="254" y="270" name="IVCVRRFV"/>
      <point x="266" y="245" name="BNLDSDEK"/>
      <point x="251" y="203" type="curve" smooth="yes" name="BOOPPMME"/>
      <point x="236" y="164" name="APGEUQZO"/>
      <point x="202" y="133" name="WIKUNKCK"/>
      <point x="169" y="133" type="curve" name="MCWGYAPG"/>
      <point x="169" y="133" name="FXJEVWXT"/>
      <point x="169" y="133" name="WDPPZZFT"/>
    </contour>
  </outline>
</glyph>
<glyph name="less" format="2">
  <advance width="317"/>
  <unicode hex="003C"/>
  <outline>
    <contour>
      <point x="45" y="188" type="curve" name="ABRLYGBP"/>
      <point x="96" y="155" name="QBSJSNFH"/>
      <point x="168" y="92" name="WXIHFYVS"/>
      <point x="258" y="5" type="curve" name="ZYIQBUKW"/>
      <point x="264" y="78" name="NUAOYZMP"/>
      <point x="278" y="143" name="ICGRQLSK"/>
      <point x="300" y="194" type="curve" name="UJMKAIEH"/>
      <point x="262" y="226" name="ALUIZWKY"/>
      <point x="227" y="252" name="CSKVAIHO"/>
      <point x="199" y="271" type="curve" name="ZOYLMSAK"/>
      <point x="254" y="289" name="FSKNBFPY"/>
      <point x="316" y="302" name="CESPQBTA"/>
      <point x="381" y="307" type="curve" name="LADKSUAS"/>
      <point x="416" y="338" name="SOPRZGRO"/>
      <point x="462" y="357" name="HDTFMSHE"/>
      <point x="513" y="365" type="curve" name="UXJBDSGQ"/>
      <point x="367" y="374" name="NOAJRVVX"/>
      <point x="238" y="355" name="DGVVJECT"/>
      <point x="131" y="309" type="curve" name="EOUCVSEO"/>
      <point x="95" y="280" name="KGXOISHE"/>
      <point x="66" y="239" name="VWUDHNEK"/>
    </contour>
  </outline>
</glyph>
<glyph name="greater" format="2">
  <advance width="317"/>
  <unicode hex="003E"/>
  <outline>
    <contour>
      <point x="304" y="188" type="curve" name="MONCNYCN"/>
      <point x="325" y="239" name="SQTLPCJP"/>
      <point x="354" y="280" name="KPBUAXES"/>
      <point x="390" y="309" type="curve" name="NSHDCUYG"/>
      <point x="330" y="355" name="TMLZEOMQ"/>
      <point x="289" y="374" name="AGCTZWZW"/>
      <point x="267" y="365" type="curve" name="XVBQCQMH"/>
      <point x="216" y="357" name="VRMTCLJY"/>
      <point x="171" y="338" name="QGGTVRDY"/>
      <point x="135" y="307" type="curve" name="FVNKOWKD"/>
      <point x="156" y="302" name="UVIJQARM"/>
      <point x="180" y="289" name="JEAKONYD"/>
      <point x="209" y="271" type="curve" name="SQYLQPXE"/>
      <point x="153" y="251" name="EOWPTHYF"/>
      <point x="101" y="227" name="XORTWBRB"/>
      <point x="54" y="194" type="curve" name="FXCNOEWT"/>
      <point x="33" y="143" name="HLQIPPKI"/>
      <point x="18" y="78" name="LQPYQHNL"/>
      <point x="12" y="5" type="curve" name="DPYBQBVA"/>
      <point x="90" y="92" name="NQVDSVXL"/>
      <point x="188" y="155" name="KKPXQWEG"/>
    </contour>
  </outline>
</glyph>
<glyph name="A" format="2">
  <advance width="471"/>
  <unicode hex="0041"/>
  <outline>
    <contour>
      <point x="-35" y="-50" type="curve" name="VSHALMGC"/>
      <point x="1" y="-42" name="WSVKSJHD"/>
      <point x="39" y="-36" name="PRFCIODM"/>
      <point x="77" y="-32" type="curve" name="JYCGCYYN"/>
      <point x="90" y="24" name="KXFJSKKY"/>
      <point x="105" y="75" name="KLUQNRFV"/>
      <point x="125" y="121" type="curve" name="UMRJARCX"/>
      <point x="176" y="125" name="NJOBXEGL"/>
      <point x="230" y="125" name="LHQYFAME"/>
      <point x="287" y="121" type="curve" name="XUPZKIVD"/>
      <point x="286" y="75" name="ASHYXYAB"/>
      <point x="287" y="24" name="WRRUGEOT"/>
      <point x="293" y="-32" type="curve" name="OXYNFWVH"/>
      <point x="336" y="-36" name="GIFICFXT"/>
      <point x="383" y="-42" name="NNGAJFQK"/>
      <point x="430" y="-50" type="curve" name="JHBKOGTE"/>
      <point x="396" y="245" name="VGBXJRGV"/>
      <point x="458" y="415" name="HGSPTSWA"/>
      <point x="608" y="451" type="curve" name="JSDVVQLS"/>
      <point x="549" y="455" name="ZKROCOOS"/>
      <point x="492" y="455" name="BFJNYVVN"/>
      <point x="439" y="451" type="curve" name="DSLSPMIN"/>
      <point x="191" y="415" name="FEBOBFIY"/>
      <point x="30" y="245" name="YYKGVVQI"/>
    </contour>
    <contour>
      <point x="206" y="261" type="curve" name="DKNCFITY"/>
      <point x="255" y="326" name="WIIRQLBW"/>
      <point x="318" y="375" name="LBPCAXFS"/>
      <point x="390" y="408" type="curve" name="OHLZNRVZ"/>
      <point x="351" y="375" name="HEMNQQMC"/>
      <point x="322" y="326" name="FJGHROUE"/>
      <point x="305" y="261" type="curve" name="LUQYXVRA"/>
      <point x="271" y="263" name="WQNSCEAO"/>
      <point x="238" y="263" name="DUARTBAJ"/>
    </contour>
  </outline>
</glyph>
<glyph name="D" format="2">
  <advance width="478"/>
  <unicode hex="0044"/>
  <outline>
    <contour>
      <point x="7" y="-49" type="curve" name="BKEYABKG"/>
      <point x="56" y="-38" name="QXTIYHOI"/>
      <point x="109" y="-31" name="KDRCVAGJ"/>
      <point x="164" y="-29" type="curve" smooth="yes" name="DLFNBILG"/>
      <point x="300" y="-24" name="VVYWQTWY"/>
      <point x="424" y="151" name="YGTCLKZA"/>
      <point x="522" y="288" type="curve" smooth="yes" name="ZQKFKCDO"/>
      <point x="619" y="425" name="SIJURBSY"/>
      <point x="640" y="456" name="AMDXFJTM"/>
      <point x="504" y="452" type="curve" smooth="yes" name="XMTGABFQ"/>
      <point x="449" y="450" name="YBRMIBXB"/>
      <point x="396" y="443" name="WZRQUGGX"/>
      <point x="347" y="432" type="curve" name="LVMRCACJ"/>
      <point x="145" y="401" name="KLVWJOFO"/>
      <point x="29" y="237" name="GTSMKTAM"/>
    </contour>
    <contour>
      <point x="377" y="409" type="curve" smooth="yes" name="AIXFDBQE"/>
      <point x="446" y="411" name="JWZSGGZS"/>
      <point x="437" y="379" name="KMBWWKRG"/>
      <point x="385" y="306" type="curve" smooth="yes" name="EXXSUGAG"/>
      <point x="332" y="232" name="TGYOAAEC"/>
      <point x="264" y="154" name="CDWCBPJA"/>
      <point x="195" y="152" type="curve" smooth="yes" name="XOGKZYJW"/>
      <point x="180" y="151" name="VSWPPHLM"/>
      <point x="164" y="150" name="XKAYWOZX"/>
      <point x="149" y="149" type="curve" name="NRTNRGFZ"/>
      <point x="184" y="270" name="CLCKRPEC"/>
      <point x="245" y="358" name="DPQEQFFP"/>
      <point x="331" y="406" type="curve" name="PSZMMABK"/>
      <point x="346" y="407" name="RYASSLLL"/>
      <point x="362" y="408" name="LIMYWSOJ"/>
    </contour>
  </outline>
</glyph>
<glyph name="J" format="2">
  <advance width="306"/>
  <unicode hex="004A"/>
  <outline>
    <contour>
      <point x="281" y="210" type="curve" name="ZXMVMQCA"/>
      <point x="337" y="338" name="GLZAABHF"/>
      <point x="434" y="415" name="QWHOKKGZ"/>
      <point x="567" y="435" type="curve" name="QEUQHDLT"/>
      <point x="520" y="444" name="EKVVQPVR"/>
      <point x="475" y="448" name="CIOBYSNI"/>
      <point x="434" y="448" type="curve" name="NUKBZNDG"/>
      <point x="301" y="427" name="CLCNUUAU"/>
      <point x="204" y="351" name="LAYNWHGY"/>
      <point x="148" y="223" type="curve" smooth="yes" name="FEISQJPT"/>
      <point x="116" y="151" name="HDYKPIDK"/>
      <point x="71" y="135" name="OMLUPVLQ"/>
      <point x="4" y="152" type="curve" name="FKMIBNMT"/>
      <point x="-13" y="98" name="WDZMNQDD"/>
      <point x="-25" y="36" name="IZGGZYVO"/>
      <point x="-31" y="-33" type="curve" name="HUDZUTOO"/>
      <point x="120" y="-71" name="BXOEXDVC"/>
      <point x="210" y="51" name="XWJHHUPF"/>
      <point x="281" y="210" type="curve" name="ANCCLVXA"/>
      <point x="281" y="210" name="UTGJZYPN"/>
      <point x="281" y="210" name="SXPMHDRZ"/>
    </contour>
  </outline>
</glyph>
<glyph name="L" format="2">
  <advance width="341"/>
  <unicode hex="004C"/>
  <outline>
    <contour>
      <point x="5" y="-46" type="curve" name="HQOKOIJC"/>
      <point x="82" y="-27" name="RLODJKRU"/>
      <point x="176" y="-27" name="DLYQYVSE"/>
      <point x="279" y="-46" type="curve" name="CUEHESHT"/>
      <point x="284" y="21" name="VICSRKVF"/>
      <point x="295" y="84" name="XCTCKCEA"/>
      <point x="310" y="136" type="curve" name="ULTDPKJN"/>
      <point x="253" y="146" name="ILEWPPPC"/>
      <point x="198" y="151" name="WISTFUTH"/>
      <point x="149" y="150" type="curve" name="AZBZGAGY"/>
      <point x="198" y="324" name="WBEZHRCT"/>
      <point x="304" y="425" name="YBNZWJNT"/>
      <point x="458" y="449" type="curve" name="TNHMNEGB"/>
      <point x="418" y="448" name="JBEFGMXP"/>
      <point x="380" y="444" name="POISMJAE"/>
      <point x="345" y="435" type="curve" name="AQEMPQDA"/>
      <point x="143" y="404" name="NAOCNVYL"/>
      <point x="27" y="240" name="WBNXIRVU"/>
    </contour>
  </outline>
</glyph>
<glyph name="M" format="2">
  <advance width="606"/>
  <unicode hex="004D"/>
  <outline>
    <contour>
      <point x="9" y="-51" type="curve" name="BOOKXVDR"/>
      <point x="41" y="-43" name="RINSULMV"/>
      <point x="78" y="-38" name="ADGNOOMA"/>
      <point x="113" y="-34" type="curve" name="DRTIQELQ"/>
      <point x="127" y="157" name="PXEQXJAJ"/>
      <point x="184" y="295" name="XSJSXXBL"/>
      <point x="279" y="372" type="curve" name="XQLDROSR"/>
      <point x="210" y="299" name="LORAMROV"/>
      <point x="180" y="162" name="SULWVXUF"/>
      <point x="193" y="-27" type="curve" name="HZYZBQSF"/>
      <point x="227" y="-25" name="BVBAZBJN"/>
      <point x="264" y="-25" name="YXUABXOK"/>
      <point x="300" y="-26" type="curve" name="UANSCUBU"/>
      <point x="344" y="166" name="QZTDNYDK"/>
      <point x="434" y="303" name="UBNINCKR"/>
      <point x="562" y="377" type="curve" name="NAUVEOPK"/>
      <point x="465" y="299" name="IWVKMRHV"/>
      <point x="406" y="160" name="MGATCVKS"/>
      <point x="391" y="-33" type="curve" name="YKCOTFEZ"/>
      <point x="433" y="-37" name="HYVKMVGT"/>
      <point x="478" y="-43" name="DQQKNBAE"/>
      <point x="523" y="-51" type="curve" name="FMXZLKFI"/>
      <point x="545" y="234" name="HBNILHZX"/>
      <point x="659" y="398" name="EXOJRZCR"/>
      <point x="860" y="430" type="curve" name="WWMKRYCJ"/>
      <point x="794" y="442" name="CLWJRKMA"/>
      <point x="730" y="449" name="QZFEISOS"/>
      <point x="669" y="453" type="curve" name="ZGMDLYSD"/>
      <point x="520" y="435" name="YFBNUIPQ"/>
      <point x="399" y="367" name="BSKUSTUT"/>
      <point x="317" y="255" type="curve" name="NNQQHHBW"/>
      <point x="346" y="367" name="KIHEDVKN"/>
      <point x="412" y="435" name="DNDPUFNZ"/>
      <point x="509" y="453" type="curve" name="CSHWKAPP"/>
      <point x="453" y="449" name="NLSXNRYI"/>
      <point x="399" y="441" name="TQMATFNJ"/>
      <point x="349" y="430" type="curve" name="VUPKEFGF"/>
      <point x="147" y="398" name="QQRXJJNX"/>
      <point x="31" y="234" name="EVBPWRWT"/>
    </contour>
  </outline>
</glyph>
<glyph name="N" format="2">
  <advance width="491"/>
  <unicode hex="004E"/>
  <outline>
    <contour>
      <point x="7" y="-48" type="curve" name="KVIRNXYP"/>
      <point x="42" y="-41" name="LFUIXXYO"/>
      <point x="79" y="-35" name="BOYXARKU"/>
      <point x="117" y="-31" type="curve" name="QDRQPPCW"/>
      <point x="130" y="130" name="JSLTSIBS"/>
      <point x="172" y="254" name="ULVVSWAJ"/>
      <point x="243" y="334" type="curve" name="QJACVFCK"/>
      <point x="220" y="258" name="FLVUDGYX"/>
      <point x="229" y="134" name="HSCIPGQF"/>
      <point x="269" y="-31" type="curve" name="BFGKSTMO"/>
      <point x="312" y="-34" name="LSCMYVCQ"/>
      <point x="359" y="-40" name="JZOZYZRU"/>
      <point x="406" y="-48" type="curve" name="FCOEMRTH"/>
      <point x="428" y="237" name="PLNSKFOZ"/>
      <point x="544" y="401" name="EHIIZIQO"/>
      <point x="746" y="432" type="curve" name="AHTQYVGW"/>
      <point x="700" y="440" name="HFLARWOF"/>
      <point x="655" y="446" name="BTKWOGOU"/>
      <point x="612" y="449" type="curve" name="GFAOTYKJ"/>
      <point x="498" y="431" name="MAVBUNUD"/>
      <point x="410" y="372" name="WKTHYIYC"/>
      <point x="353" y="272" type="curve" name="EQYRYGEY"/>
      <point x="357" y="375" name="LDWOGHQB"/>
      <point x="393" y="435" name="WLOEGLMT"/>
      <point x="460" y="449" type="curve" name="XLOSKXTJ"/>
      <point x="421" y="447" name="XANZICMP"/>
      <point x="382" y="441" name="AFIDNMJJ"/>
      <point x="347" y="432" type="curve" name="SAZRIQWH"/>
      <point x="146" y="401" name="BJLYKYHO"/>
      <point x="30" y="237" name="HBPFETEB"/>
    </contour>
  </outline>
</glyph>
<glyph name="O" format="2">
  <advance width="516"/>
  <unicode hex="004F"/>
  <anchor x="-110.0" y="688" name="top"/>
  <outline>
    <contour>
      <point x="197" y="-40" type="curve" name="LBYSZARE"/>
      <point x="335" y="-40" name="BYGRSVVY"/>
      <point x="456" y="144" name="IGDVUEZN"/>
      <point x="560" y="289" type="curve" smooth="yes" name="XYIVLTVO"/>
      <point x="662" y="434" name="YVNRHGFL"/>
      <point x="691" y="464" name="EFPJOLBJ"/>
      <point x="553" y="464" type="curve" smooth="yes" name="HASQGMHS"/>
      <point x="414" y="464" name="SELKSSUB"/>
      <point x="186" y="434" name="AUXVAUZB"/>
      <point x="83" y="289" type="curve" smooth="yes" name="PTMIRFZQ"/>
      <point x="-20" y="144" name="IYQGPCDT"/>
      <point x="58" y="-40" name="LSTPEQDS"/>
      <point x="197" y="-40" type="curve" name="VNSQYBMN"/>
      <point x="197" y="-40" name="IWIKSRKD"/>
      <point x="197" y="-40" name="LCGLVEUP"/>
    </contour>
    <contour>
      <point x="228" y="145" type="curve" name="CHIEXHSI"/>
      <point x="159" y="145" name="YRAIQSDM"/>
      <point x="138" y="226" name="SSXRQSJX"/>
      <point x="196" y="308" type="curve" smooth="yes" name="BTJQDOGS"/>
      <point x="254" y="390" name="YMGISTUX"/>
      <point x="353" y="420" name="VQBJPUWV"/>
      <point x="422" y="420" type="curve" smooth="yes" name="RNFFKTVL"/>
      <point x="491" y="420" name="TBUOOQOI"/>
      <point x="477" y="389" name="VBITHKKP"/>
      <point x="420" y="308" type="curve" smooth="yes" name="LJFILMKA"/>
      <point x="362" y="226" name="OLEDMEQW"/>
      <point x="297" y="145" name="PEXMKTAJ"/>
      <point x="228" y="145" type="curve" name="JUPDUJLL"/>
      <point x="228" y="145" name="MSEBZVBM"/>
      <point x="228" y="145" name="TNLQESJW"/>
    </contour>
  </outline>
</glyph>
<glyph name="R" format="2">
  <advance width="442"/>
  <unicode hex="0052"/>
  <outline>
    <contour>
      <point x="7" y="-48" type="curve" name="TBXBGFYX"/>
      <point x="42" y="-41" name="YUTAZCSJ"/>
      <point x="79" y="-34" name="AMPJHZTC"/>
      <point x="118" y="-31" type="curve" name="EMRNOZSP"/>
      <point x="126" y="64" name="MSPCJJOS"/>
      <point x="144" y="149" name="QZWTOSEA"/>
      <point x="171" y="216" type="curve" name="DUGRVOAD"/>
      <point x="187" y="217" name="RSYMTEHZ"/>
      <point x="202" y="218" name="USGMTWWQ"/>
      <point x="219" y="218" type="curve" name="LSURHSKU"/>
      <point x="220" y="152" name="OEDVQZGY"/>
      <point x="232" y="67" name="BPIYSFEI"/>
      <point x="256" y="-31" type="curve" name="GGHESHUY"/>
      <point x="304" y="-34" name="TEXJADTI"/>
      <point x="354" y="-39" name="AVQZYTWN"/>
      <point x="407" y="-48" type="curve" name="LCKPOASE"/>
      <point x="373" y="73" name="MKDDRZEZ"/>
      <point x="354" y="175" name="GCRRTHSC"/>
      <point x="352" y="251" type="curve" name="FOTFUMMB"/>
      <point x="409" y="280" name="BRFCKLYU"/>
      <point x="464" y="324" name="RQNXZYJQ"/>
      <point x="514" y="365" type="curve" smooth="yes" name="BFLBLGMN"/>
      <point x="601" y="437" name="KXPWULYV"/>
      <point x="609" y="455" name="MMXWCKDU"/>
      <point x="504" y="452" type="curve" smooth="yes" name="FYAFCUAF"/>
      <point x="448" y="450" name="YCMSMHWR"/>
      <point x="395" y="444" name="UJIWMTJB"/>
      <point x="347" y="432" type="curve" name="RZSAFFMF"/>
      <point x="145" y="401" name="FBYDKELP"/>
      <point x="29" y="237" name="TJQJRAZR"/>
    </contour>
    <contour>
      <point x="376" y="408" type="curve" smooth="yes" name="JJWCGXKX"/>
      <point x="410" y="410" name="RJDUEXIR"/>
      <point x="408" y="396" name="GKFKDUQS"/>
      <point x="381" y="374" type="curve" smooth="yes" name="JDLERFLD"/>
      <point x="355" y="352" name="QMKQQIDW"/>
      <point x="318" y="331" name="KZDEMXCF"/>
      <point x="290" y="331" type="curve" smooth="yes" name="XTIBPMBD"/>
      <point x="272" y="331" name="GWOMAZUF"/>
      <point x="255" y="329" name="EGNXYSHV"/>
      <point x="238" y="328" type="curve" name="MBMGWINW"/>
      <point x="265" y="360" name="ZMFWXEDE"/>
      <point x="296" y="386" name="UWBORVVG"/>
      <point x="331" y="406" type="curve" name="OUUKHDER"/>
      <point x="346" y="407" name="DQYXDPXR"/>
      <point x="360" y="408" name="XIHYOGSC"/>
    </contour>
  </outline>
</glyph>
<glyph name="X" format="2">
  <advance width="466"/>
  <unicode hex="0058"/>
  <outline>
    <contour>
      <point x="317" y="433" type="curve" name="UXTYUNSN"/>
      <point x="259" y="426" name="RKCNYTMH"/>
      <point x="222" y="385" name="YUPXXORQ"/>
      <point x="210" y="313" type="curve" name="OSXKEZIC"/>
      <point x="104" y="230" name="IAVNOVYA"/>
      <point x="23" y="106" name="JHYZEYKI"/>
      <point x="-31" y="-50" type="curve" name="CGCSAGBD"/>
      <point x="8" y="-41" name="CIWJGUCM"/>
      <point x="50" y="-34" name="EFYOVNKV"/>
      <point x="93" y="-31" type="curve" name="YSKCLJQL"/>
      <point x="128" y="60" name="LOYRGQUI"/>
      <point x="173" y="141" name="MRMZESQQ"/>
      <point x="227" y="205" type="curve" name="WWZSWSNA"/>
      <point x="230" y="141" name="EYXXONOL"/>
      <point x="245" y="60" name="AHMUHDWG"/>
      <point x="268" y="-31" type="curve" name="VYFIYFMA"/>
      <point x="316" y="-34" name="TTWBENUX"/>
      <point x="368" y="-41" name="HXHDIHUV"/>
      <point x="421" y="-50" type="curve" name="BVMCKLOC"/>
      <point x="377" y="107" name="SWYDPUVC"/>
      <point x="359" y="232" name="ICUYOSOG"/>
      <point x="368" y="315" type="curve" name="GEHVVDAW"/>
      <point x="472" y="386" name="MTMAHDFK"/>
      <point x="603" y="426" name="EZPSQTIA"/>
      <point x="752" y="432" type="curve" name="BPIOECAV"/>
      <point x="701" y="441" name="DOHPPAKC"/>
      <point x="650" y="447" name="SUXTVVMA"/>
      <point x="602" y="451" type="curve" name="OOZMSNXC"/>
      <point x="518" y="444" name="RLGSMMUF"/>
      <point x="439" y="425" name="WBOKYIEB"/>
      <point x="371" y="396" type="curve" name="TVDBJYAR"/>
      <point x="387" y="425" name="ANSEOJUB"/>
      <point x="412" y="444" name="MWZQFRJJ"/>
      <point x="444" y="451" type="curve" name="JUBILFQV"/>
      <point x="400" y="448" name="KTJCVHDH"/>
      <point x="357" y="442" name="NHAQMIPB"/>
    </contour>
  </outline>
</glyph>
<glyph name="Y" format="2">
  <advance width="423"/>
  <unicode hex="0059"/>
  <outline>
    <contour>
      <point x="97" y="-29" type="curve" name="SCGBRCMS"/>
      <point x="137" y="-27" name="YLGFSUXV"/>
      <point x="178" y="-27" name="FVIAVQBM"/>
      <point x="221" y="-29" type="curve" name="LRFKCAOG"/>
      <point x="229" y="73" name="KLIXAOJV"/>
      <point x="249" y="164" name="DQHJLBJE"/>
      <point x="281" y="233" type="curve" name="HIATPYWL"/>
      <point x="389" y="354" name="QONQWLHJ"/>
      <point x="542" y="421" name="XQMCWPYF"/>
      <point x="728" y="432" type="curve" name="DICGGLPP"/>
      <point x="678" y="440" name="RDYUGUUQ"/>
      <point x="630" y="447" name="KMMXHLKA"/>
      <point x="585" y="449" type="curve" name="XHYHXNJI"/>
      <point x="483" y="440" name="EYNCIHAE"/>
      <point x="391" y="413" name="QMIOTHQO"/>
      <point x="314" y="369" type="curve" name="KVGODOBU"/>
      <point x="336" y="413" name="FCPQZFXO"/>
      <point x="370" y="440" name="YWNJPCRF"/>
      <point x="417" y="450" type="curve" name="HHITBCMU"/>
      <point x="376" y="447" name="QVNOVLEY"/>
      <point x="336" y="440" name="LTXOMAVQ"/>
      <point x="298" y="432" type="curve" name="JXCUHPKZ"/>
      <point x="213" y="421" name="UZDAPOOT"/>
      <point x="165" y="354" name="DHNFGOJH"/>
      <point x="158" y="233" type="curve" name="KLXRMITD"/>
      <point x="126" y="164" name="EISEASZW"/>
      <point x="106" y="73" name="ILWEPGQE"/>
    </contour>
  </outline>
</glyph>
<glyph name="bracketleft" format="2">
  <advance width="315"/>
  <unicode hex="005B"/>
  <outline>
    <contour>
      <point x="-56" y="-175" type="curve" name="HEHCWJZH"/>
      <point x="10" y="-159" name="AUVEMZUR"/>
      <point x="89" y="-159" name="AKZWOXBK"/>
      <point x="177" y="-175" type="curve" name="GGZBOWBX"/>
      <point x="182" y="-114" name="ULGAVJHH"/>
      <point x="190" y="-56" name="RWGEHFFZ"/>
      <point x="201" y="-3" type="curve" name="ZZYTQRFH"/>
      <point x="157" y="4" name="EEMPTALZ"/>
      <point x="114" y="8" name="PRWQDEUO"/>
      <point x="76" y="8" type="curve" name="RXAJCXZM"/>
      <point x="123" y="239" name="FSLWZQRP"/>
      <point x="232" y="394" name="TKELRGSS"/>
      <point x="396" y="461" type="curve" name="FMQYZHAU"/>
      <point x="434" y="461" name="XKFSGKQB"/>
      <point x="477" y="456" name="HZUWNJFK"/>
      <point x="521" y="449" type="curve" name="OSTCKUQS"/>
      <point x="558" y="464" name="YIHYGWMA"/>
      <point x="599" y="476" name="AMDYOCUV"/>
      <point x="642" y="483" type="curve" name="JFMCIEOL"/>
      <point x="554" y="498" name="NXEBBHCZ"/>
      <point x="475" y="498" name="MENLSWPU"/>
      <point x="409" y="483" type="curve" name="NXVHDFKM"/>
      <point x="132" y="440" name="IMAAIKBD"/>
      <point x="-26" y="216" name="JTULOFKD"/>
    </contour>
  </outline>
</glyph>
<glyph name="grave" format="2">
  <advance width="288"/>
  <unicode hex="0060"/>
  <anchor x="-60.0" y="517" name="top"/>
  <anchor x="194.0" y="517" name="center"/>
  <outline>
    <contour>
      <point x="464" y="404" type="curve" name="QKLOQYYS"/>
      <point x="441" y="492" name="EKMJABDY"/>
      <point x="446" y="541" name="ONUFSLSF"/>
      <point x="478" y="552" type="curve" name="QPUOPUTP"/>
      <point x="435" y="554" name="WVCSZZSQ"/>
      <point x="394" y="551" name="STXECLNL"/>
      <point x="358" y="543" type="curve" name="ZSEZFOQR"/>
      <point x="327" y="539" name="WZKTZVJM"/>
      <point x="324" y="496" name="KDAEIIAP"/>
      <point x="348" y="414" type="curve" name="EJOKDFUQ"/>
      <point x="383" y="415" name="YQSBGQFD"/>
      <point x="423" y="411" name="DBAEONDD"/>
    </contour>
  </outline>
</glyph>
<glyph name="a" format="2">
  <advance width="438"/>
  <unicode hex="0061"/>
  <anchor x="230.0" y="517" name="center"/>
  <outline>
    <contour>
      <point x="220" y="-14" type="curve" name="RFRXNLNQ"/>
      <point x="260" y="-17" name="GTCPDWWO"/>
      <point x="304" y="-23" name="GBLDHZPB"/>
      <point x="348" y="-31" type="curve" name="ECYLTZEZ"/>
      <point x="368" y="182" name="GYKEAPGH"/>
      <point x="456" y="306" name="FRGHFBOW"/>
      <point x="606" y="335" type="curve" name="TMKYTYTK"/>
      <point x="563" y="343" name="QZNRRCRN"/>
      <point x="518" y="348" name="RHZAESPM"/>
      <point x="478" y="351" type="curve" name="XGXLDBRK"/>
      <point x="470" y="349" name="CKCHAAYH"/>
      <point x="462" y="348" name="AQNYWRRE"/>
      <point x="453" y="345" type="curve" name="MDVSLRME"/>
      <point x="451" y="353" name="ORPLKRUJ"/>
      <point x="434" y="357" name="FZAHFCZL"/>
      <point x="400" y="356" type="curve" smooth="yes" name="ASLMTSOL"/>
      <point x="306" y="355" name="QSBUMJRT"/>
      <point x="130" y="338" name="NLDEYMQA"/>
      <point x="48" y="222" type="curve" smooth="yes" name="PUECHEZL"/>
      <point x="-33" y="107" name="JKYHXMJY"/>
      <point x="34" y="-31" name="MLZQSXOD"/>
      <point x="128" y="-29" type="curve" smooth="yes" name="BKBQXWTA"/>
      <point x="162" y="-29" name="QIRDJZFV"/>
      <point x="195" y="-10" name="PBDENUZF"/>
      <point x="224" y="22" type="curve" name="EKDGAGNW"/>
      <point x="222" y="10" name="ATDDYBVN"/>
      <point x="221" y="-2" name="HKCCHHRH"/>
    </contour>
    <contour>
      <point x="174" y="135" type="curve" name="EIUOTKTY"/>
      <point x="128" y="135" name="UOPLGIMD"/>
      <point x="115" y="184" name="OHSPEYJW"/>
      <point x="153" y="238" type="curve" smooth="yes" name="YZOQGJPX"/>
      <point x="192" y="292" name="HYFCPYLD"/>
      <point x="255" y="314" name="CUMDJYIW"/>
      <point x="301" y="314" type="curve" smooth="yes" name="RDHNIDNU"/>
      <point x="346" y="314" name="FPXOSMZC"/>
      <point x="341" y="292" name="KDUDCOLX"/>
      <point x="303" y="238" type="curve" smooth="yes" name="ARPSVJOP"/>
      <point x="265" y="184" name="SRUPOXTI"/>
      <point x="219" y="135" name="FBFALOQM"/>
      <point x="174" y="135" type="curve" name="WNJTCGEG"/>
      <point x="174" y="135" name="XKLSCOID"/>
      <point x="174" y="135" name="BWJTQHGS"/>
    </contour>
  </outline>
</glyph>
<glyph name="b" format="2">
  <advance width="438"/>
  <unicode hex="0062"/>
  <outline>
    <contour>
      <point x="102" y="-29" type="curve" name="NTIWZURW"/>
      <point x="103" y="-16" name="VWJRIPBM"/>
      <point x="105" y="-4" name="EGRRAIMX"/>
      <point x="106" y="8" type="curve" name="QHQHXEAN"/>
      <point x="125" y="-24" name="UVFGCQGG"/>
      <point x="152" y="-43" name="WVVBSQKB"/>
      <point x="187" y="-43" type="curve" smooth="yes" name="MHNUIHWP"/>
      <point x="283" y="-45" name="QESTFBZR"/>
      <point x="381" y="91" name="WMVWUVIQ"/>
      <point x="443" y="229" type="curve" smooth="yes" name="XKTPJPAV"/>
      <point x="507" y="367" name="RVMVCBSI"/>
      <point x="497" y="423" name="TRKMMSAH"/>
      <point x="401" y="425" type="curve" smooth="yes" name="ZWAQZXCM"/>
      <point x="367" y="425" name="DGQUBRVY"/>
      <point x="326" y="417" name="LUIGAKMW"/>
      <point x="287" y="401" type="curve" name="PFOZHDWL"/>
      <point x="338" y="442" name="ZWWFAOIE"/>
      <point x="401" y="468" name="ORCSFLEH"/>
      <point x="473" y="480" type="curve" name="FSOVLHHF"/>
      <point x="437" y="477" name="ATRDVUFA"/>
      <point x="400" y="471" name="PPEZJINH"/>
      <point x="368" y="464" type="curve" name="ONKKJWQY"/>
      <point x="151" y="430" name="ZYMTPCJT"/>
      <point x="25" y="257" name="WFJEYRKO"/>
      <point x="-3" y="-45" type="curve" name="WVAWLGGV"/>
      <point x="30" y="-37" name="YGNSDUMJ"/>
      <point x="66" y="-31" name="YMBILJND"/>
    </contour>
    <contour>
      <point x="197" y="126" type="curve" name="KONSSEKA"/>
      <point x="152" y="126" name="EKEALSCD"/>
      <point x="136" y="179" name="SPBWIGZS"/>
      <point x="166" y="244" type="curve" smooth="yes" name="WACNGEIS"/>
      <point x="196" y="309" name="BOEBDNVW"/>
      <point x="251" y="343" name="QDIBMZRC"/>
      <point x="296" y="343" type="curve" smooth="yes" name="VYXJYLLI"/>
      <point x="342" y="343" name="ENCBQBMC"/>
      <point x="346" y="310" name="OSSIUVBL"/>
      <point x="315" y="244" type="curve" smooth="yes" name="DPSHREBV"/>
      <point x="285" y="179" name="YFZXPXMH"/>
      <point x="243" y="126" name="WNNKXWTV"/>
      <point x="197" y="126" type="curve" name="KWLZKPNM"/>
      <point x="197" y="126" name="OXCAQYLZ"/>
      <point x="197" y="126" name="JSLJZZNU"/>
    </contour>
  </outline>
</glyph>
<glyph name="e" format="2">
  <advance width="399"/>
  <unicode hex="0065"/>
  <anchor x="-82.0" y="527" name="top"/>
  <anchor x="210.0" y="517" name="center"/>
  <outline>
    <contour>
      <point x="302" y="4" type="curve" name="WXICIDNB"/>
      <point x="310" y="60" name="BCLKIMJG"/>
      <point x="322" y="110" name="JCLZWRAB"/>
      <point x="339" y="152" type="curve" name="HOJFQFTZ"/>
      <point x="208" y="122" name="NHPZMMVH"/>
      <point x="125" y="130" name="KSHHUQBF"/>
      <point x="130" y="192" type="curve" name="CMEFVMPR"/>
      <point x="204" y="197" name="KUMCYBZQ"/>
      <point x="287" y="191" name="KMRBBOWY"/>
      <point x="375" y="176" type="curve" name="HGFWWJRO"/>
      <point x="478" y="326" name="FBBPDPFQ"/>
      <point x="538" y="356" name="RZKXRGSL"/>
      <point x="416" y="357" type="curve" smooth="yes" name="VPQYWHDU"/>
      <point x="305" y="358" name="GXPJHYNM"/>
      <point x="126" y="333" name="EUYLMSOR"/>
      <point x="48" y="222" type="curve" smooth="yes" name="VQQSUTLZ"/>
      <point x="-71" y="54" name="WIODBZYU"/>
      <point x="104" y="-85" name="YCFFYAGN"/>
      <point x="302" y="4" type="curve" name="JHBGRMMR"/>
      <point x="302" y="4" name="PNQPBLSD"/>
      <point x="302" y="4" name="QLIUZSAP"/>
    </contour>
    <contour>
      <point x="296" y="314" type="curve" name="ZJQCCAFU"/>
      <point x="325" y="313" name="BVFGEYSU"/>
      <point x="334" y="304" name="DNMENWDN"/>
      <point x="320" y="277" type="curve" name="LKMPQPDQ"/>
      <point x="275" y="280" name="HVYFPOMF"/>
      <point x="232" y="280" name="CVRGQQIT"/>
      <point x="191" y="278" type="curve" name="BXYFRVWD"/>
      <point x="229" y="304" name="SHZQODYG"/>
      <point x="268" y="314" name="FHUHALNP"/>
      <point x="296" y="314" type="curve" name="SZAJLAMG"/>
      <point x="296" y="314" name="UVNIVKJZ"/>
      <point x="296" y="314" name="CZXPGABP"/>
    </contour>
  </outline>
</glyph>
<glyph name="f" format="2">
  <advance width="302"/>
  <unicode hex="0066"/>
  <outline>
    <contour>
      <point x="91" y="316" type="curve" name="UOTRHDWQ"/>
      <point x="108" y="320" name="GWFKTQVX"/>
      <point x="125" y="323" name="WHQIWZHS"/>
      <point x="143" y="325" type="curve" name="SXQCYSGO"/>
      <point x="82" y="239" name="AMCEBCQT"/>
      <point x="45" y="114" name="IKTUTIIE"/>
      <point x="32" y="-41" type="curve" name="TXJBOCDK"/>
      <point x="67" y="-36" name="VSOEASTU"/>
      <point x="107" y="-35" name="EMKNEKYH"/>
      <point x="146" y="-37" type="curve" name="EMFIZJMS"/>
      <point x="158" y="118" name="ACTKEGQS"/>
      <point x="196" y="242" name="VLNXWXRD"/>
      <point x="256" y="329" type="curve" name="GBIMKFME"/>
      <point x="286" y="328" name="CKWQMQEZ"/>
      <point x="319" y="324" name="KJAHJLFY"/>
      <point x="352" y="319" type="curve" name="LBBIFENU"/>
      <point x="376" y="353" name="VUXGEMRL"/>
      <point x="405" y="384" name="RPOCPBTM"/>
      <point x="437" y="408" type="curve" name="VGELWJDK"/>
      <point x="404" y="413" name="MFBENNJN"/>
      <point x="372" y="416" name="UUTHJRAG"/>
      <point x="342" y="418" type="curve" name="JOLQFQXM"/>
      <point x="345" y="420" name="NNIYCUGB"/>
      <point x="349" y="423" name="ERSKQPWG"/>
      <point x="352" y="426" type="curve" smooth="yes" name="SZNPJPWB"/>
      <point x="388" y="450" name="LRQIDHIS"/>
      <point x="449" y="454" name="JWAERIVP"/>
      <point x="494" y="432" type="curve" name="WRRQRCFW"/>
      <point x="530" y="452" name="AJYAVMSE"/>
      <point x="572" y="466" name="DMELYFAO"/>
      <point x="617" y="474" type="curve" name="XMOCLZZA"/>
      <point x="543" y="502" name="YJJCBJYA"/>
      <point x="359" y="505" name="MRMJAWKM"/>
      <point x="239" y="422" type="curve" smooth="yes" name="VLUEYQRV"/>
      <point x="235" y="420" name="HPHWJUSZ"/>
      <point x="232" y="417" name="MAVJMMXH"/>
      <point x="228" y="414" type="curve" name="YBEQSVIM"/>
      <point x="210" y="412" name="RCJWNWDR"/>
      <point x="193" y="409" name="NWOHTYXT"/>
      <point x="177" y="405" type="curve" name="EAIIOZHN"/>
      <point x="145" y="381" name="DMUHHBTB"/>
      <point x="116" y="351" name="PJNTSDPS"/>
    </contour>
  </outline>
</glyph>
<glyph name="g" format="2">
  <advance width="422"/>
  <unicode hex="0067"/>
  <outline>
    <contour>
      <point x="321" y="102" type="curve" name="JCJWTXKA"/>
      <point x="377" y="225" name="WTBAYTWZ"/>
      <point x="472" y="299" name="LVSROSWB"/>
      <point x="598" y="323" type="curve" name="TEJHVGNX"/>
      <point x="555" y="330" name="PTZUTFIY"/>
      <point x="511" y="336" name="LJNXWDAP"/>
      <point x="471" y="338" type="curve" name="XOSTNITI"/>
      <point x="463" y="337" name="XMBWLMDP"/>
      <point x="456" y="336" name="BDZLTXPP"/>
      <point x="448" y="333" type="curve" name="DUYLGXAE"/>
      <point x="444" y="340" name="OEBSFAKZ"/>
      <point x="426" y="343" name="RKYPAUGB"/>
      <point x="393" y="342" type="curve" smooth="yes" name="FMSBLGNA"/>
      <point x="309" y="340" name="USZBIYMC"/>
      <point x="148" y="319" name="TLEXCHOL"/>
      <point x="59" y="241" type="curve" smooth="yes" name="HAHNUOKG"/>
      <point x="-28" y="166" name="VYSKYSFM"/>
      <point x="-1" y="87" name="FMQMCLPO"/>
      <point x="86" y="89" type="curve" smooth="yes" name="EFIIVYSV"/>
      <point x="122" y="90" name="EXJOMAKI"/>
      <point x="159" y="103" name="CFBNLZFS"/>
      <point x="194" y="123" type="curve" name="LYITXAQC"/>
      <point x="192" y="118" name="SKRVLVCE"/>
      <point x="190" y="113" name="VXJYQZXU"/>
      <point x="187" y="108" type="curve" smooth="yes" name="BUUCEHKU"/>
      <point x="153" y="28" name="AUWWTQRZ"/>
      <point x="52" y="-5" name="GBVVQONF"/>
      <point x="-28" y="40" type="curve" name="HSQSBDRD"/>
      <point x="-44" y="-11" name="UJALTLVT"/>
      <point x="-56" y="-69" name="THFTHTRD"/>
      <point x="-63" y="-133" type="curve" name="TNINRONX"/>
      <point x="79" y="-191" name="HTVZLMSI"/>
      <point x="232" y="-94" name="BXBXRZIB"/>
      <point x="321" y="102" type="curve" name="SAJDCUYX"/>
      <point x="321" y="102" name="KZIQOVRZ"/>
      <point x="321" y="102" name="PIPWXBIV"/>
    </contour>
    <contour>
      <point x="178" y="203" type="curve" name="ISZKLDNI"/>
      <point x="136" y="203" name="JZLIOLDY"/>
      <point x="130" y="229" name="UCYILSFR"/>
      <point x="166" y="258" type="curve" smooth="yes" name="BCCXEBOJ"/>
      <point x="202" y="290" name="LOZTQWXE"/>
      <point x="256" y="305" name="KPHTOCZT"/>
      <point x="298" y="305" type="curve" smooth="yes" name="YDKQWNZG"/>
      <point x="337" y="305" name="ZBXZVKOD"/>
      <point x="335" y="289" name="JDSOSIKO"/>
      <point x="299" y="258" type="curve" smooth="yes" name="BIIWMWJN"/>
      <point x="264" y="229" name="QCQRCMNS"/>
      <point x="217" y="203" name="HLLJBVHS"/>
      <point x="178" y="203" type="curve" name="XQABREUB"/>
      <point x="178" y="203" name="FXFILKWP"/>
      <point x="178" y="203" name="FRGSTNBC"/>
    </contour>
  </outline>
</glyph>
<glyph name="i" format="2">
  <advance width="199"/>
  <unicode hex="0069"/>
  <outline>
    <contour>
      <point x="284" y="451" type="curve" name="EORTHLMT"/>
      <point x="323" y="451" name="EVWNVOMG"/>
      <point x="394" y="464" name="MEVSEGWQ"/>
      <point x="438" y="481" type="curve" smooth="yes" name="CPEHEUPM"/>
      <point x="482" y="496" name="EDIZPBUH"/>
      <point x="485" y="509" name="XAYCUERG"/>
      <point x="445" y="510" type="curve" smooth="yes" name="YXOIDRHZ"/>
      <point x="404" y="510" name="ZZXTBODZ"/>
      <point x="335" y="496" name="TGCQBOPY"/>
      <point x="291" y="481" type="curve" smooth="yes" name="KFIZCLYG"/>
      <point x="247" y="464" name="KBRCEJDG"/>
      <point x="243" y="451" name="WRPWNNGS"/>
      <point x="284" y="451" type="curve" name="WINLDFYY"/>
      <point x="284" y="451" name="FIWYGBKH"/>
      <point x="284" y="451" name="GIZVWOQL"/>
    </contour>
    <contour>
      <point x="1" y="-46" type="curve" name="SDTEZHUF"/>
      <point x="34" y="-40" name="YFTCVRCK"/>
      <point x="75" y="-40" name="NIQDWMOU"/>
      <point x="117" y="-46" type="curve" name="NANFPBJG"/>
      <point x="134" y="172" name="AMUCLZXQ"/>
      <point x="198" y="328" name="CKAABMEO"/>
      <point x="306" y="418" type="curve" name="BOLSPHDY"/>
      <point x="264" y="424" name="YIPXIPTF"/>
      <point x="223" y="424" name="TTREWCBW"/>
      <point x="190" y="418" type="curve" name="GRFAHYSX"/>
      <point x="82" y="328" name="EIRDFQMH"/>
      <point x="18" y="172" name="LYJHVYCU"/>
    </contour>
  </outline>
</glyph>
<glyph name="j" format="2">
  <advance width="215"/>
  <unicode hex="006A"/>
  <outline>
    <contour>
      <point x="304" y="444" type="curve" name="VACLDQOW"/>
      <point x="345" y="442" name="FXAAFOHK"/>
      <point x="417" y="453" name="NRZWZXEC"/>
      <point x="462" y="468" type="curve" smooth="yes" name="PBYXEXJZ"/>
      <point x="507" y="483" name="RECKMWSC"/>
      <point x="511" y="495" name="STVKDZIM"/>
      <point x="470" y="497" type="curve" smooth="yes" name="DZGMIOYU"/>
      <point x="427" y="500" name="UBLRDHAA"/>
      <point x="356" y="490" name="QYIRXACY"/>
      <point x="311" y="475" type="curve" smooth="yes" name="NGPZBRCX"/>
      <point x="266" y="460" name="LDHPBAQA"/>
      <point x="262" y="447" name="QIXLLDFR"/>
      <point x="304" y="444" type="curve" name="TZVMKPNF"/>
      <point x="304" y="444" name="DBRERLKR"/>
      <point x="304" y="444" name="NPPWBRID"/>
    </contour>
    <contour>
      <point x="-27" y="60" type="curve" smooth="yes" name="YOBLMBNG"/>
      <point x="-42" y="3" name="GQIOVQPU"/>
      <point x="-61" y="-14" name="PTBXIOLN"/>
      <point x="-96" y="-7" type="curve" name="STNNKLLS"/>
      <point x="-107" y="-59" name="ESOYGHIR"/>
      <point x="-115" y="-117" name="RKZCMZSC"/>
      <point x="-120" y="-176" type="curve" name="JREFECMJ"/>
      <point x="-30" y="-186" name="DMGQLZGZ"/>
      <point x="47" y="-135" name="EFZZCKRZ"/>
      <point x="91" y="40" type="curve" smooth="yes" name="YHRVVLDT"/>
      <point x="134" y="212" name="ZICYKJHM"/>
      <point x="214" y="339" name="MVOIPSOX"/>
      <point x="325" y="413" type="curve" name="BTYYILPY"/>
      <point x="282" y="420" name="OWUXKXLW"/>
      <point x="241" y="422" name="LHOAPXOT"/>
      <point x="204" y="419" type="curve" name="CABAIUNV"/>
      <point x="95" y="347" name="TPRKVVOO"/>
      <point x="17" y="224" name="KQBOYVON"/>
    </contour>
  </outline>
</glyph>
<glyph name="l" format="2">
  <advance width="195"/>
  <unicode hex="006C"/>
  <outline>
    <contour>
      <point x="-2" y="-45" type="curve" name="CJUYAYBO"/>
      <point x="30" y="-37" name="BXNSLLMR"/>
      <point x="71" y="-37" name="NMZADAWX"/>
      <point x="114" y="-45" type="curve" name="APLOHXXK"/>
      <point x="138" y="262" name="SJWNUYWP"/>
      <point x="262" y="437" name="MMVHIZHR"/>
      <point x="479" y="471" type="curve" name="ESPVVCIB"/>
      <point x="436" y="479" name="HEZCKGWH"/>
      <point x="395" y="479" name="CIXKCOAE"/>
      <point x="363" y="471" type="curve" name="SMLWGTAO"/>
      <point x="146" y="437" name="YXQXQQUG"/>
      <point x="22" y="262" name="MKPXXGOQ"/>
    </contour>
  </outline>
</glyph>
<glyph name="m" format="2">
  <advance width="613"/>
  <unicode hex="006D"/>
  <outline>
    <contour>
      <point x="-5" y="-41" type="curve" name="QIIQZMQE"/>
      <point x="28" y="-34" name="SAHFRVMM"/>
      <point x="63" y="-27" name="PYXSTICK"/>
      <point x="99" y="-23" type="curve" name="KPPJHXVD"/>
      <point x="109" y="104" name="FDFBYLSC"/>
      <point x="143" y="203" name="NICGLDJW"/>
      <point x="199" y="266" type="curve" smooth="yes" name="PCHMUDKD"/>
      <point x="226" y="295" name="NOYWAQYA"/>
      <point x="262" y="310" name="VYCPCKTZ"/>
      <point x="292" y="312" type="curve" smooth="yes" name="CHQWFBUB"/>
      <point x="322" y="314" name="RACIMBQB"/>
      <point x="314" y="301" name="BVPDOQPP"/>
      <point x="289" y="273" type="curve" smooth="yes" name="JJAAORWI"/>
      <point x="233" y="210" name="DPJTPADH"/>
      <point x="199" y="111" name="QBTVZGHE"/>
      <point x="189" y="-16" type="curve" name="VFNRGETV"/>
      <point x="226" y="-14" name="LZQJUSIJ"/>
      <point x="266" y="-14" name="MILOIOLD"/>
      <point x="306" y="-16" type="curve" name="PFWDODGU"/>
      <point x="316" y="111" name="CYDOXGPE"/>
      <point x="350" y="210" name="BTHBOPZJ"/>
      <point x="406" y="273" type="curve" smooth="yes" name="SHYIULXC"/>
      <point x="432" y="303" name="POMHNKDX"/>
      <point x="472" y="314" name="AYGTJCFS"/>
      <point x="504" y="312" type="curve" smooth="yes" name="DFYQQPWK"/>
      <point x="538" y="309" name="JABAQQUD"/>
      <point x="532" y="293" name="CYYYOILY"/>
      <point x="506" y="266" type="curve" smooth="yes" name="YQKKSKPH"/>
      <point x="451" y="203" name="FGXZASOC"/>
      <point x="416" y="104" name="CULWGNSH"/>
      <point x="406" y="-23" type="curve" name="CXOHMTCB"/>
      <point x="447" y="-27" name="DQBGZYJQ"/>
      <point x="492" y="-34" name="LESQXVWF"/>
      <point x="536" y="-41" type="curve" name="QDHFWXHJ"/>
      <point x="546" y="95" name="YXWWOQOY"/>
      <point x="584" y="197" name="FOJCROQJ"/>
      <point x="647" y="259" type="curve" smooth="yes" name="DQQITIJA"/>
      <point x="723" y="334" name="CRWXUKDM"/>
      <point x="737" y="347" name="ZOHIJWDQ"/>
      <point x="646" y="355" type="curve" smooth="yes" name="JMUMYQCT"/>
      <point x="602" y="359" name="RIWJLNOI"/>
      <point x="544" y="359" name="CKKODUEG"/>
      <point x="489" y="351" type="curve" name="THEDEGFX"/>
      <point x="494" y="360" name="UKPFGSXT"/>
      <point x="480" y="361" name="DCLDMIFY"/>
      <point x="447" y="360" type="curve" smooth="yes" name="WRPAVJYS"/>
      <point x="415" y="358" name="HOJJRHNV"/>
      <point x="373" y="354" name="FHBWFARE"/>
      <point x="330" y="345" type="curve" name="UEPOCJSO"/>
      <point x="337" y="347" name="OLLDIVNY"/>
      <point x="344" y="348" name="AUSUPHFO"/>
      <point x="352" y="350" type="curve" name="QNSWTPMQ"/>
      <point x="316" y="346" name="DRORFZBK"/>
      <point x="281" y="340" name="MIWHJAHH"/>
      <point x="248" y="332" type="curve" name="HSHKTNZS"/>
      <point x="97" y="303" name="ISVSXDEB"/>
      <point x="12" y="176" name="MBVPOLTA"/>
    </contour>
  </outline>
</glyph>
<glyph name="n" format="2">
  <advance width="419"/>
  <unicode hex="006E"/>
  <anchor x="203.0" y="517" name="center"/>
  <outline>
    <contour>
      <point x="-9" y="-36" type="curve" name="DKCZGIWM"/>
      <point x="24" y="-29" name="PDFBQWQU"/>
      <point x="61" y="-24" name="TIQUOMAB"/>
      <point x="97" y="-21" type="curve" name="QWRIFOSC"/>
      <point x="106" y="102" name="ARJIATKY"/>
      <point x="138" y="198" name="UZOLNTXT"/>
      <point x="190" y="260" type="curve" smooth="yes" name="QQEZUUHZ"/>
      <point x="221" y="297" name="TWSPAFPU"/>
      <point x="265" y="312" name="JNJHDCUG"/>
      <point x="302" y="312" type="curve" smooth="yes" name="MPSTOTMY"/>
      <point x="340" y="312" name="QYEIWYKA"/>
      <point x="333" y="295" name="VKHCAXYJ"/>
      <point x="304" y="260" type="curve" smooth="yes" name="FBICQVMH"/>
      <point x="252" y="198" name="VOBLINPZ"/>
      <point x="220" y="102" name="UTACICSC"/>
      <point x="211" y="-21" type="curve" name="QYLUBHCM"/>
      <point x="251" y="-24" name="HQBMGZIC"/>
      <point x="295" y="-29" name="MBQXZQRJ"/>
      <point x="338" y="-36" type="curve" name="XGWRHRFA"/>
      <point x="349" y="96" name="ZKOHTXGO"/>
      <point x="384" y="196" name="FQGHPTOW"/>
      <point x="444" y="258" type="curve" smooth="yes" name="ICSYFZVJ"/>
      <point x="522" y="339" name="PYBCCCGZ"/>
      <point x="539" y="353" name="KQAMOUZB"/>
      <point x="456" y="355" type="curve" smooth="yes" name="SRSQVLXZ"/>
      <point x="418" y="357" name="JPWGCIRP"/>
      <point x="373" y="355" name="AHXNFRJS"/>
      <point x="327" y="348" type="curve" name="ZCXLFYUE"/>
      <point x="335" y="349" name="NEIHJXBX"/>
      <point x="342" y="351" name="ZBHBGTOV"/>
      <point x="350" y="353" type="curve" name="GLSZOSHS"/>
      <point x="313" y="350" name="TCDNCHNG"/>
      <point x="277" y="345" name="BHVJASLV"/>
      <point x="244" y="337" type="curve" name="KKIZDCTE"/>
      <point x="94" y="308" name="SPVQDDHV"/>
      <point x="8" y="181" name="DOCVMKZI"/>
    </contour>
  </outline>
</glyph>
<glyph name="o" format="2">
  <advance width="424"/>
  <unicode hex="006F"/>
  <anchor x="-88.0" y="527" name="top"/>
  <outline>
    <contour>
      <point x="145" y="-31" type="curve" name="OBRLAGIP"/>
      <point x="255" y="-31" name="TPHQIAYG"/>
      <point x="355" y="111" name="SLLBNUVD"/>
      <point x="434" y="222" type="curve" smooth="yes" name="EZCHJDAO"/>
      <point x="513" y="333" name="ILPENCCC"/>
      <point x="530" y="357" name="WGWJORXX"/>
      <point x="420" y="357" type="curve" smooth="yes" name="NDHPRJLU"/>
      <point x="309" y="357" name="TPBVQRHA"/>
      <point x="127" y="333" name="DWLOYQJU"/>
      <point x="48" y="222" type="curve" smooth="yes" name="JNYFYTAF"/>
      <point x="-31" y="111" name="ZINFAKCE"/>
      <point x="35" y="-31" name="JGKCNMDJ"/>
      <point x="145" y="-31" type="curve" name="DXKKKRFR"/>
      <point x="145" y="-31" name="KSQLQPNM"/>
      <point x="145" y="-31" name="KVFJJSVA"/>
    </contour>
    <contour>
      <point x="176" y="136" type="curve" name="BXLTMDJC"/>
      <point x="130" y="136" name="ZDLXLSSH"/>
      <point x="116" y="186" name="YCPIOSCV"/>
      <point x="153" y="238" type="curve" smooth="yes" name="AETUUHTY"/>
      <point x="190" y="290" name="WPBQZNDR"/>
      <point x="255" y="314" name="ANBDHKLY"/>
      <point x="301" y="314" type="curve" smooth="yes" name="ILLYSWRE"/>
      <point x="347" y="314" name="TRLFCPDD"/>
      <point x="343" y="290" name="YBLBCMDS"/>
      <point x="306" y="238" type="curve" smooth="yes" name="WWJSQACX"/>
      <point x="269" y="186" name="PEPBFYJU"/>
      <point x="221" y="136" name="UOEGNEXM"/>
      <point x="176" y="136" type="curve" name="LYACURGU"/>
      <point x="176" y="136" name="XAUXYMUV"/>
      <point x="176" y="136" name="COGVPVHT"/>
    </contour>
  </outline>
</glyph>
<glyph name="r" format="2">
  <advance width="279"/>
  <unicode hex="0072"/>
  <outline>
    <contour>
      <point x="-11" y="-34" type="curve" name="MJYCXGVF"/>
      <point x="22" y="-26" name="WPMDNPHT"/>
      <point x="59" y="-22" name="JFDDKONL"/>
      <point x="98" y="-22" type="curve" name="SSQLOHEA"/>
      <point x="107" y="92" name="NWRFGGVA"/>
      <point x="135" y="184" name="VYENJEAT"/>
      <point x="181" y="246" type="curve" smooth="yes" name="RULNETLO"/>
      <point x="219" y="296" name="UJFNPWCO"/>
      <point x="278" y="312" name="EZOOEGNL"/>
      <point x="353" y="290" type="curve" name="MBYNEAEN"/>
      <point x="388" y="316" name="PNZPXPPA"/>
      <point x="432" y="333" name="DRIMRWIX"/>
      <point x="479" y="341" type="curve" name="LAQHREDX"/>
      <point x="435" y="350" name="LUYKGNXW"/>
      <point x="381" y="351" name="AUPBAQNJ"/>
      <point x="327" y="345" type="curve" name="RXDFVWUV"/>
      <point x="335" y="346" name="OKHOKYBF"/>
      <point x="343" y="349" name="SQWIQMWN"/>
      <point x="351" y="350" type="curve" name="XIXXARQA"/>
      <point x="313" y="350" name="WGZNQHCJ"/>
      <point x="275" y="347" name="HMPXNXUH"/>
      <point x="243" y="339" type="curve" name="LSQRHJJU"/>
      <point x="92" y="310" name="QKIWDGCS"/>
      <point x="6" y="184" name="KMRTBBQZ"/>
    </contour>
  </outline>
</glyph>
<glyph name="u" format="2">
  <advance width="419"/>
  <unicode hex="0075"/>
  <outline>
    <contour>
      <point x="591" y="329" type="curve" name="PPZTJWRN"/>
      <point x="548" y="337" name="AEVSBTEE"/>
      <point x="504" y="342" name="LNSEXQOC"/>
      <point x="464" y="345" type="curve" name="QYRROEIH"/>
      <point x="377" y="331" name="ZLPCSFCC"/>
      <point x="309" y="286" name="TGBZDAPL"/>
      <point x="265" y="213" type="curve" smooth="yes" name="GMOTZUMW"/>
      <point x="239" y="169" name="LFIABLVC"/>
      <point x="207" y="138" name="JZKJCZRG"/>
      <point x="169" y="138" type="curve" smooth="yes" name="KJJFXAZH"/>
      <point x="132" y="138" name="XIWQTPVK"/>
      <point x="127" y="172" name="UGZIBCST"/>
      <point x="151" y="213" type="curve" smooth="yes" name="KGKDVSVN"/>
      <point x="195" y="286" name="JGOMWEFR"/>
      <point x="263" y="331" name="DHUTSBVQ"/>
      <point x="350" y="345" type="curve" name="POAJDLPY"/>
      <point x="314" y="342" name="IXJWNVFI"/>
      <point x="277" y="337" name="TODMFPZJ"/>
      <point x="244" y="329" type="curve" name="QVKRMWJA"/>
      <point x="151" y="314" name="COWPLLSU"/>
      <point x="80" y="264" name="DXARDKKY"/>
      <point x="36" y="179" type="curve" smooth="yes" name="RXKQBBPJ"/>
      <point x="-21" y="70" name="QLYSKIPY"/>
      <point x="25" y="-33" name="DTIJNGUM"/>
      <point x="104" y="-30" type="curve" smooth="yes" name="PNIUSOXF"/>
      <point x="139" y="-28" name="QAIDCIGJ"/>
      <point x="173" y="-10" name="EZIGRJVQ"/>
      <point x="203" y="19" type="curve" name="JFNJQQEG"/>
      <point x="202" y="7" name="LNTIREQF"/>
      <point x="201" y="-2" name="LIKITXOO"/>
      <point x="200" y="-13" type="curve" name="ETLSGMWV"/>
      <point x="239" y="-15" name="OSGRROZW"/>
      <point x="284" y="-21" name="KZSVTFMV"/>
      <point x="327" y="-29" type="curve" name="XEAUCMOR"/>
      <point x="348" y="184" name="AQWNUFYQ"/>
      <point x="437" y="305" name="TTAMHFIY"/>
    </contour>
  </outline>
</glyph>
<glyph name="v" format="2">
  <advance width="382"/>
  <unicode hex="0076"/>
  <outline>
    <contour>
      <point x="64" y="-20" type="curve" name="CETQLMRB"/>
      <point x="106" y="-17" name="OALJVTRG"/>
      <point x="153" y="-17" name="GXPJTXCW"/>
      <point x="200" y="-20" type="curve" name="EGUURNPT"/>
      <point x="261" y="195" name="RPAANMYB"/>
      <point x="395" y="313" name="CWZGDTWK"/>
      <point x="597" y="328" type="curve" name="DPNIFOCN"/>
      <point x="552" y="336" name="PZEUUZQH"/>
      <point x="507" y="342" name="ZXDZIRBM"/>
      <point x="465" y="345" type="curve" name="IVKSSRBH"/>
      <point x="345" y="332" name="YWSLHPDJ"/>
      <point x="250" y="280" name="ARKSXQZZ"/>
      <point x="182" y="193" type="curve" name="HPICQEGE"/>
      <point x="201" y="281" name="HXXUYPYV"/>
      <point x="247" y="332" name="ILSGCJVN"/>
      <point x="318" y="345" type="curve" name="SITDMBLD"/>
      <point x="280" y="343" name="ASAJEXVH"/>
      <point x="242" y="337" name="NDFBLJOE"/>
      <point x="208" y="328" type="curve" name="VHDXMILN"/>
      <point x="90" y="313" name="SAOFCSKK"/>
      <point x="41" y="195" name="QIZEBTCD"/>
    </contour>
  </outline>
</glyph>
<glyph name="w" format="2">
  <advance width="548"/>
  <unicode hex="0077"/>
  <outline>
    <contour>
      <point x="56" y="-23" type="curve" name="TYADESJX"/>
      <point x="91" y="-19" name="PLWMYIKM"/>
      <point x="129" y="-16" name="XPRVLDLZ"/>
      <point x="165" y="-14" type="curve" name="AKQFWWHN"/>
      <point x="188" y="90" name="LSXUVIKR"/>
      <point x="229" y="176" name="CSKWDKIK"/>
      <point x="284" y="235" type="curve" name="QPMSIVSV"/>
      <point x="258" y="176" name="WYBDCZJW"/>
      <point x="250" y="90" name="CDUQXLDH"/>
      <point x="257" y="-14" type="curve" name="VQMOQUZK"/>
      <point x="295" y="-16" name="IJPTLRRN"/>
      <point x="337" y="-19" name="NZGTOKHI"/>
      <point x="378" y="-23" type="curve" name="FDSWUESH"/>
      <point x="435" y="190" name="WXXXCXXB"/>
      <point x="564" y="308" name="FPWPOWTX"/>
      <point x="760" y="325" type="curve" name="HPBEFSOG"/>
      <point x="716" y="333" name="PPEEMWQZ"/>
      <point x="672" y="338" name="MRFQVFLY"/>
      <point x="631" y="343" type="curve" name="GSWYCEUZ"/>
      <point x="526" y="332" name="LWBVZNKP"/>
      <point x="438" y="290" name="PYPIDUSI"/>
      <point x="376" y="218" type="curve" name="YSNHQWQV"/>
      <point x="403" y="292" name="CCBEOJRY"/>
      <point x="452" y="337" name="AGAQKAFE"/>
      <point x="520" y="351" type="curve" name="NOIYVNSJ"/>
      <point x="486" y="353" name="PQBZMNTS"/>
      <point x="453" y="353" name="WFQONGVT"/>
      <point x="421" y="351" type="curve" name="IVYKHCCN"/>
      <point x="322" y="338" name="DESCLUKH"/>
      <point x="240" y="292" name="YAQKDKKY"/>
      <point x="182" y="221" type="curve" name="WHIXWSZD"/>
      <point x="207" y="290" name="XOWANWZL"/>
      <point x="255" y="332" name="XNAPJWDF"/>
      <point x="322" y="343" type="curve" name="TRQBXZNO"/>
      <point x="286" y="339" name="ZDSSPGWN"/>
      <point x="250" y="333" name="LGHKMMZA"/>
      <point x="216" y="325" type="curve" name="MQSXSAOY"/>
      <point x="94" y="308" name="WWCFXYQX"/>
      <point x="40" y="190" name="EDUKVOXF"/>
    </contour>
  </outline>
</glyph>
<glyph name="x" format="2">
  <advance width="382"/>
  <unicode hex="0078"/>
  <outline>
    <contour>
      <point x="220" y="330" type="curve" name="YKTDXTZQ"/>
      <point x="177" y="326" name="XHTZXRJX"/>
      <point x="151" y="295" name="BFZMINBT"/>
      <point x="143" y="240" type="curve" name="IECWMLSP"/>
      <point x="62" y="176" name="WQZFSXLX"/>
      <point x="-1" y="82" name="ZXZLYZEV"/>
      <point x="-44" y="-36" type="curve" name="JLUGSDDS"/>
      <point x="-7" y="-28" name="DYTCRJZY"/>
      <point x="32" y="-22" name="FFDNXBKT"/>
      <point x="73" y="-19" type="curve" name="GNBZDYRV"/>
      <point x="96" y="39" name="UVHUXIJS"/>
      <point x="125" y="92" name="OJOWEUYJ"/>
      <point x="159" y="136" type="curve" name="TJRVXFDA"/>
      <point x="164" y="92" name="ODUNEFYF"/>
      <point x="174" y="39" name="UTBGQWQD"/>
      <point x="189" y="-19" type="curve" name="XDTZARFL"/>
      <point x="234" y="-22" name="JVLTHOCM"/>
      <point x="282" y="-28" name="TWOUBOMX"/>
      <point x="331" y="-36" type="curve" name="JCWBITCC"/>
      <point x="296" y="85" name="MZJUXHSI"/>
      <point x="280" y="180" name="IRFCFLHR"/>
      <point x="286" y="244" type="curve" name="YEXIGYYJ"/>
      <point x="367" y="297" name="XKGWBLUA"/>
      <point x="469" y="326" name="SAKRJEIK"/>
      <point x="585" y="330" type="curve" name="OPGOCFEI"/>
      <point x="536" y="338" name="DVKCYUDW"/>
      <point x="488" y="344" name="ILTRWDGM"/>
      <point x="444" y="346" type="curve" name="GZHOYSPQ"/>
      <point x="390" y="341" name="XIVDLUYR"/>
      <point x="338" y="331" name="HPWUMWWL"/>
      <point x="292" y="315" type="curve" name="RXULEPKC"/>
      <point x="303" y="331" name="OZMLKFWN"/>
      <point x="318" y="342" name="LXDVIPCF"/>
      <point x="338" y="346" type="curve" name="XQHLXJIA"/>
      <point x="297" y="344" name="VCAJHNZM"/>
      <point x="257" y="338" name="ZCYSMKJX"/>
    </contour>
  </outline>
</glyph>
<glyph name="bar" format="2">
  <advance width="223"/>
  <unicode hex="007C"/>
  <outline>
    <contour>
      <point x="58" y="-172" type="curve" name="LEMXWTKM"/>
      <point x="89" y="219" name="DTHQKRQA"/>
      <point x="247" y="442" name="USNGXYIF"/>
      <point x="523" y="485" type="curve" name="MNFQZIBI"/>
      <point x="480" y="493" name="SAPLXLPF"/>
      <point x="439" y="493" name="OBXGAOTJ"/>
      <point x="407" y="485" type="curve" name="QWPJRQMR"/>
      <point x="130" y="442" name="FTCOXHYK"/>
      <point x="-28" y="219" name="PWOXHWDJ"/>
      <point x="-58" y="-172" type="curve" name="MAQKAMJL"/>
      <point x="-26" y="-164" name="GCPUWTWL"/>
      <point x="15" y="-164" name="VWKXULNM"/>
    </contour>
  </outline>
</glyph>
<glyph name="asciitilde" format="2">
  <advance width="451"/>
  <unicode hex="007E"/>
  <outline>
    <contour>
      <point x="467" y="305" type="curve" name="IXEXCMEQ"/>
      <point x="399" y="292" name="WPZSWOJD"/>
      <point x="374" y="264" name="VFAEHQVE"/>
      <point x="352" y="266" type="curve" smooth="yes" name="QIZNPXQP"/>
      <point x="314" y="268" name="PJAQUBJP"/>
      <point x="378" y="314" name="DDLRHIUE"/>
      <point x="297" y="308" type="curve" smooth="yes" name="ZTOXBXMP"/>
      <point x="224" y="302" name="WEQERKME"/>
      <point x="68" y="318" name="UOEMAGWK"/>
      <point x="48" y="105" type="curve" name="TNFLVQBC"/>
      <point x="77" y="112" name="OFHWCWCG"/>
      <point x="108" y="117" name="WIJYBNEW"/>
      <point x="139" y="121" type="curve" name="FEYTYRTP"/>
      <point x="149" y="217" name="BRKFKSYS"/>
      <point x="183" y="232" name="LTMQIOTL"/>
      <point x="203" y="234" type="curve" smooth="yes" name="DTKTSLJZ"/>
      <point x="237" y="236" name="YSWDBWVE"/>
      <point x="223" y="120" name="IYBUAMSC"/>
      <point x="313" y="114" type="curve" smooth="yes" name="ZWFPLQDO"/>
      <point x="394" y="108" name="GWKEKEOB"/>
      <point x="430" y="261" name="INILYIAS"/>
      <point x="581" y="290" type="curve" name="RNLRIMCP"/>
      <point x="542" y="297" name="HFGEBFIL"/>
      <point x="504" y="302" name="KSPYRHRS"/>
    </contour>
  </outline>
</glyph>
<glyph name="brokenbar" format="2">
  <advance width="223"/>
  <unicode hex="00A6"/>
  <outline>
    <contour>
      <point x="216" y="312" type="curve" name="PYQSBIXJ"/>
      <point x="291" y="406" name="RFYKZRZV"/>
      <point x="395" y="466" name="CVXHRRHI"/>
      <point x="523" y="485" type="curve" name="EJSRURLP"/>
      <point x="480" y="493" name="FERDEADG"/>
      <point x="439" y="493" name="BTJMGMPV"/>
      <point x="407" y="485" type="curve" name="LTRTKPGQ"/>
      <point x="279" y="466" name="ANJCHOHI"/>
      <point x="175" y="406" name="SWEZZMUA"/>
      <point x="99" y="312" type="curve" name="SNQRQEUX"/>
      <point x="132" y="320" name="WLRQTCWX"/>
      <point x="172" y="320" name="DWNFYWBW"/>
    </contour>
    <contour>
      <point x="58" y="-172" type="curve" name="SYKXGXTE"/>
      <point x="72" y="9" name="MMEDMDCY"/>
      <point x="114" y="156" name="UYELASPH"/>
      <point x="181" y="263" type="curve" name="JWOJGDPK"/>
      <point x="137" y="271" name="MMXCTLEV"/>
      <point x="97" y="271" name="CSONRAHQ"/>
      <point x="64" y="263" type="curve" name="JIECYSOC"/>
      <point x="-2" y="156" name="YLFRAMDZ"/>
      <point x="-44" y="9" name="VVSCIEGZ"/>
      <point x="-58" y="-172" type="curve" name="PRYLNEXH"/>
      <point x="-26" y="-164" name="LAGMCYXU"/>
      <point x="15" y="-164" name="BRSFVZFY"/>
    </contour>
  </outline>
</glyph>
<glyph name="logicalnot" format="2">
  <advance width="360"/>
  <unicode hex="00AC"/>
  <outline>
    <contour>
      <point x="93" y="244" type="curve" name="RLMTCLCA"/>
      <point x="147" y="256" name="ZKWLHIAF"/>
      <point x="210" y="261" name="ECTXGKDD"/>
      <point x="275" y="258" type="curve" name="TCVKFSMG"/>
      <point x="249" y="221" name="YRNOKYNH"/>
      <point x="233" y="169" name="GNJTGJBH"/>
      <point x="228" y="103" type="curve" name="ZWZHWWXK"/>
      <point x="266" y="101" name="BNBYEZFK"/>
      <point x="308" y="96" name="GADVBLYN"/>
      <point x="350" y="89" type="curve" name="HQMXAGMR"/>
      <point x="361" y="220" name="PGVEWBVV"/>
      <point x="414" y="295" name="YUANHNPR"/>
      <point x="506" y="309" type="curve" name="DHNSEKQT"/>
      <point x="392" y="329" name="WMRREARW"/>
      <point x="288" y="329" name="JRVATJXD"/>
      <point x="202" y="309" type="curve" name="CCSHOQGR"/>
      <point x="156" y="302" name="CYJVWVRO"/>
      <point x="119" y="280" name="ATPGGYBJ"/>
    </contour>
  </outline>
</glyph>
<glyph name="hyphensoft" format="2">
  <advance width="240"/>
  <unicode hex="00AD"/>
  <outline>
    <contour>
      <point x="71" y="157" type="curve" name="NAXSEYFM"/>
      <point x="125" y="170" name="CLKUAKZG"/>
      <point x="190" y="170" name="WGWYUDGU"/>
      <point x="262" y="157" type="curve" name="HADMBQWB"/>
      <point x="267" y="222" name="TSVECZAT"/>
      <point x="293" y="260" name="MUGCOTGN"/>
      <point x="339" y="267" type="curve" name="UIBLQZMB"/>
      <point x="268" y="280" name="TTIRTTIM"/>
      <point x="202" y="280" name="BIVOFIHB"/>
      <point x="149" y="267" type="curve" name="HXGJTIKO"/>
      <point x="103" y="260" name="IEVJXQIM"/>
      <point x="76" y="222" name="MJLOLOJS"/>
    </contour>
  </outline>
</glyph>
<glyph name="registered" format="2">
  <advance width="434"/>
  <unicode hex="00AE"/>
  <outline>
    <contour>
      <point x="249" y="114" type="curve" name="ZJPAOHIL"/>
      <point x="354" y="114" name="UBYBDRLG"/>
      <point x="447" y="244" name="XCEZYLOZ"/>
      <point x="521" y="350" type="curve" smooth="yes" name="RKSISJRH"/>
      <point x="596" y="455" name="KAUYIQEA"/>
      <point x="611" y="478" name="HPCCQFUD"/>
      <point x="506" y="478" type="curve" smooth="yes" name="SSQOLBWQ"/>
      <point x="401" y="478" name="JGQKHYRT"/>
      <point x="232" y="455" name="PIQJXNWD"/>
      <point x="158" y="350" type="curve" smooth="yes" name="NCFUKRXD"/>
      <point x="83" y="244" name="MSEXROUV"/>
      <point x="144" y="114" name="ZMAPPZDK"/>
      <point x="249" y="114" type="curve" name="OYPZDYJW"/>
      <point x="249" y="114" name="KTBDMFHL"/>
      <point x="249" y="114" name="YMWTAKGP"/>
    </contour>
    <contour>
      <point x="257" y="177" type="curve" name="SAGCRDPG"/>
      <point x="173" y="177" name="NNSUHSIK"/>
      <point x="133" y="273" name="NPWOOSKT"/>
      <point x="192" y="357" type="curve" smooth="yes" name="GTIARTID"/>
      <point x="251" y="440" name="RATHLJFM"/>
      <point x="378" y="467" name="BXRMCCUD"/>
      <point x="462" y="467" type="curve" smooth="yes" name="EAUGZHCF"/>
      <point x="544" y="467" name="TKGKFILF"/>
      <point x="536" y="440" name="QHJERAAI"/>
      <point x="477" y="357" type="curve" smooth="yes" name="GIHMRHSB"/>
      <point x="418" y="273" name="XOVXSAXN"/>
      <point x="339" y="177" name="XDKNCWAZ"/>
      <point x="257" y="177" type="curve" name="KHIUXGQN"/>
      <point x="257" y="177" name="GZWPPYNY"/>
      <point x="257" y="177" name="WGDMMZDP"/>
    </contour>
    <contour>
      <point x="210" y="264" type="curve" name="ZRVBVIVI"/>
      <point x="227" y="266" name="GPZWUZVM"/>
      <point x="245" y="266" name="EXEJCZRV"/>
      <point x="263" y="267" type="curve" name="HWCXLEMJ"/>
      <point x="269" y="287" name="EHFZERLS"/>
      <point x="277" y="307" name="GARANICO"/>
      <point x="286" y="324" type="curve" name="NNULKUXU"/>
      <point x="293" y="324" name="DZMYDYHX"/>
      <point x="298" y="324" name="DAJTGGXM"/>
      <point x="305" y="324" type="curve" name="JPZORZRB"/>
      <point x="305" y="324" name="OOCHPJQO"/>
      <point x="305" y="324" name="HWLXQLLE"/>
      <point x="305" y="324" type="curve" name="QARUYPVF"/>
      <point x="306" y="307" name="YDXFZBZJ"/>
      <point x="308" y="287" name="VGBJOLDK"/>
      <point x="311" y="266" type="curve" name="ZITPXKCD"/>
      <point x="332" y="266" name="PHMLERXW"/>
      <point x="354" y="264" name="LONBPHHU"/>
      <point x="376" y="262" type="curve" name="PGMSKNJI"/>
      <point x="371" y="292" name="XNIHKJMW"/>
      <point x="367" y="319" name="AHIYADYP"/>
      <point x="366" y="342" type="curve" name="MYAPFJDG"/>
      <point x="387" y="354" name="ZHHUWGKP"/>
      <point x="408" y="371" name="IDDEKBEB"/>
      <point x="424" y="389" type="curve" smooth="yes" name="LYCAJXVL"/>
      <point x="455" y="425" name="HCITNEYJ"/>
      <point x="451" y="442" name="QIWCPMHW"/>
      <point x="405" y="442" type="curve" smooth="yes" name="XTYNPMDI"/>
      <point x="382" y="442" name="XZHFLAUE"/>
      <point x="359" y="441" name="JMMCOFMU"/>
      <point x="338" y="440" type="curve" name="PZRVULHO"/>
      <point x="279" y="405" name="ZFIIYAUE"/>
      <point x="236" y="345" name="TDMCUMWB"/>
    </contour>
    <contour>
      <point x="362" y="408" type="curve" smooth="yes" name="SBZUZKOV"/>
      <point x="374" y="408" name="CUKCUXOK"/>
      <point x="374" y="401" name="XJOMVBXJ"/>
      <point x="366" y="391" type="curve" smooth="yes" name="VQFMFNEF"/>
      <point x="358" y="383" name="QTQCSZKN"/>
      <point x="345" y="374" name="TJGAQIFA"/>
      <point x="335" y="374" type="curve" smooth="yes" name="PODHIHRL"/>
      <point x="329" y="374" name="EIQOBLIG"/>
      <point x="323" y="374" name="EKGAYYZI"/>
      <point x="317" y="374" type="curve" name="GKOJMUMU"/>
      <point x="326" y="386" name="PSJFDUVV"/>
      <point x="336" y="398" name="EYUWAFJR"/>
      <point x="346" y="408" type="curve" name="SERRKTSE"/>
      <point x="351" y="408" name="PBPYLWLL"/>
      <point x="356" y="408" name="UDIYFGKK"/>
    </contour>
  </outline>
</glyph>
<glyph name="macron" format="2">
  <advance width="346"/>
  <unicode hex="00AF"/>
  <anchor x="-72.0" y="517" name="top"/>
  <anchor x="173.0" y="517" name="center"/>
  <outline>
    <contour>
      <point x="272" y="413" type="curve" name="XXSHZBNL"/>
      <point x="345" y="431" name="NGHWCVVM"/>
      <point x="435" y="431" name="JFJVSNDK"/>
      <point x="533" y="413" type="curve" name="OLCWGAUD"/>
      <point x="538" y="475" name="SJHBGBMM"/>
      <point x="562" y="510" name="OENVPXRD"/>
      <point x="606" y="516" type="curve" name="XBQBVLLU"/>
      <point x="507" y="534" name="DHREOKUM"/>
      <point x="418" y="534" name="SNDSZZXU"/>
      <point x="344" y="516" type="curve" name="MXFFEEKR"/>
      <point x="301" y="510" name="MOEFRJQZ"/>
      <point x="276" y="475" name="JMDOQEAW"/>
    </contour>
  </outline>
</glyph>
<glyph name="plusminus" format="2">
  <advance width="382"/>
  <unicode hex="00B1"/>
  <outline>
    <contour>
      <point x="75" y="256" type="curve" name="HZTILNMF"/>
      <point x="105" y="263" name="MYALUGZO"/>
      <point x="138" y="268" name="PHUAONUE"/>
      <point x="172" y="271" type="curve" name="ABKWWAWM"/>
      <point x="152" y="244" name="LEEEYNOB"/>
      <point x="135" y="212" name="DQTLXQCE"/>
      <point x="122" y="176" type="curve" name="VVWJTIVA"/>
      <point x="156" y="179" name="BURGGTBB"/>
      <point x="195" y="179" name="DXXNAPJM"/>
      <point x="234" y="176" type="curve" name="TFLFAZBX"/>
      <point x="248" y="212" name="ACKKWOQF"/>
      <point x="264" y="244" name="RNABONOP"/>
      <point x="284" y="271" type="curve" name="NLRMSSLX"/>
      <point x="321" y="268" name="NOOXURJE"/>
      <point x="360" y="263" name="CTGHJYYN"/>
      <point x="400" y="256" type="curve" name="RBUCAHIE"/>
      <point x="426" y="292" name="MPCMOEXO"/>
      <point x="458" y="321" name="KPHQFNCF"/>
      <point x="495" y="342" type="curve" name="EEJVZWFL"/>
      <point x="454" y="349" name="CVHTSJMB"/>
      <point x="415" y="354" name="SNJYSJUL"/>
      <point x="379" y="356" type="curve" name="KGYFIUEN"/>
      <point x="412" y="374" name="FGWKJHXB"/>
      <point x="449" y="387" name="PNHXTLHF"/>
      <point x="490" y="394" type="curve" name="RWYXZKBX"/>
      <point x="451" y="396" name="ICNDTIJE"/>
      <point x="412" y="396" name="AUWAKIJN"/>
      <point x="377" y="394" type="curve" name="OKTOJOJO"/>
      <point x="336" y="387" name="ZTLDVXHP"/>
      <point x="299" y="374" name="RRKQSIGU"/>
      <point x="266" y="356" type="curve" name="YYLPOOHK"/>
      <point x="232" y="354" name="IVTFEOFC"/>
      <point x="200" y="349" name="EQVGGATG"/>
      <point x="169" y="342" type="curve" name="OBMKMHCF"/>
      <point x="133" y="321" name="MQGQSUUD"/>
      <point x="100" y="292" name="FYMYUOHP"/>
    </contour>
    <contour>
      <point x="-16" y="-41" type="curve" name="UJFEDHJK"/>
      <point x="76" y="-19" name="SBVMCWFH"/>
      <point x="186" y="-19" name="ORQSTYDZ"/>
      <point x="309" y="-41" type="curve" name="AAQBVFAW"/>
      <point x="314" y="24" name="QYCIQGQU"/>
      <point x="325" y="84" name="VPYXXOZR"/>
      <point x="341" y="134" type="curve" name="WYHNZAEY"/>
      <point x="218" y="156" name="MUCSZKYK"/>
      <point x="107" y="156" name="BCVZJNLD"/>
      <point x="15" y="134" type="curve" name="VKBXOTQJ"/>
      <point x="-1" y="85" name="FKOIICMS"/>
      <point x="-11" y="24" name="WAHZQYCV"/>
    </contour>
  </outline>
</glyph>
<glyph name="acute" format="2">
  <advance width="288"/>
  <unicode hex="00B4"/>
  <anchor x="-60.0" y="517" name="top"/>
  <anchor x="94.0" y="517" name="center"/>
  <outline>
    <contour>
      <point x="274" y="404" type="curve" name="NPRNXCFM"/>
      <point x="305" y="411" name="DWRLYCLB"/>
      <point x="340" y="415" name="NHDYULFD"/>
      <point x="376" y="414" type="curve" name="IYESGBWR"/>
      <point x="414" y="496" name="AVEBZHHZ"/>
      <point x="482" y="539" name="FVJFYJPZ"/>
      <point x="576" y="543" type="curve" name="YANZWQJP"/>
      <point x="529" y="551" name="SNMFTGOI"/>
      <point x="483" y="554" name="EEWFMEIN"/>
      <point x="443" y="552" type="curve" name="EHFYUEEB"/>
      <point x="360" y="541" name="TSEYCRTF"/>
      <point x="303" y="492" name="OZKSUYRJ"/>
    </contour>
  </outline>
</glyph>
<glyph name="mu.math" format="2">
  <advance width="419"/>
  <unicode hex="00B5"/>
  <outline>
    <contour>
      <point x="599" y="319" type="curve" name="PLNRBHVW"/>
      <point x="555" y="326" name="RGZOKVCW"/>
      <point x="511" y="331" name="BZBEOLNS"/>
      <point x="471" y="334" type="curve" name="MNPFRXIF"/>
      <point x="385" y="321" name="IKFSIKVA"/>
      <point x="312" y="282" name="MHKYZKPT"/>
      <point x="259" y="222" type="curve" smooth="yes" name="RNCPLWDJ"/>
      <point x="227" y="186" name="LJLIRDEJ"/>
      <point x="191" y="161" name="KHOYULFA"/>
      <point x="153" y="161" type="curve" smooth="yes" name="ZPAYZYBH"/>
      <point x="116" y="161" name="QWDDXZIJ"/>
      <point x="116" y="188" name="CIPQOYRL"/>
      <point x="145" y="222" type="curve" smooth="yes" name="RFZZCEHD"/>
      <point x="198" y="282" name="DPOYICIH"/>
      <point x="271" y="321" name="AIONHRAV"/>
      <point x="357" y="334" type="curve" name="EVFKEXGZ"/>
      <point x="321" y="331" name="YRPJYRQP"/>
      <point x="284" y="326" name="TOFHSMRG"/>
      <point x="252" y="319" type="curve" name="FWVFFKYT"/>
      <point x="51" y="287" name="CBDLTKVH"/>
      <point x="-64" y="123" name="MJEYEYNG"/>
      <point x="-87" y="-160" type="curve" name="SLGKHBHE"/>
      <point x="-54" y="-152" name="NOOKQSXU"/>
      <point x="-17" y="-147" name="PFNUZMYF"/>
      <point x="19" y="-145" type="curve" name="NCTHWSWJ"/>
      <point x="24" y="-77" name="JHZXLADD"/>
      <point x="35" y="-14" name="XPAJDKKN"/>
      <point x="50" y="39" type="curve" name="WTAPUAAI"/>
      <point x="58" y="29" name="TWVWCRTN"/>
      <point x="70" y="25" name="RCOFAFSB"/>
      <point x="87" y="25" type="curve" smooth="yes" name="BCFSQDUR"/>
      <point x="113" y="26" name="IFXPWYLQ"/>
      <point x="142" y="37" name="MFZYWYBI"/>
      <point x="169" y="56" type="curve" name="UDFGQPGB"/>
      <point x="168" y="49" name="BLJFVVOA"/>
      <point x="166" y="44" name="ATMEBLWS"/>
      <point x="164" y="37" type="curve" name="HYCDJXMU"/>
      <point x="204" y="35" name="NMARDQIH"/>
      <point x="248" y="29" name="QVZZQRKX"/>
      <point x="292" y="22" type="curve" name="XQXTRXNF"/>
      <point x="341" y="193" name="CQNDBCXW"/>
      <point x="445" y="295" name="VGQPAPRN"/>
    </contour>
  </outline>
</glyph>
<glyph name="paragraph" format="2">
  <advance width="550"/>
  <unicode hex="00B6"/>
  <outline>
    <contour>
      <point x="285" y="-29" type="curve" name="POHNFLTV"/>
      <point x="302" y="191" name="DYVOHCSQ"/>
      <point x="374" y="340" name="VAMQXABW"/>
      <point x="498" y="409" type="curve" name="BQFOKKHX"/>
      <point x="514" y="408" name="RERLBSTX"/>
      <point x="531" y="407" name="SFRJPLRN"/>
      <point x="547" y="406" type="curve" name="QJOHYPMS"/>
      <point x="423" y="336" name="MOPSCXSU"/>
      <point x="351" y="188" name="YRGLRQVO"/>
      <point x="334" y="-33" type="curve" name="TLYQFPJL"/>
      <point x="375" y="-36" name="KRIKTQQT"/>
      <point x="419" y="-43" name="KBRECPYF"/>
      <point x="463" y="-51" type="curve" name="BVBPSTWE"/>
      <point x="486" y="234" name="CLVWUIZV"/>
      <point x="602" y="398" name="XHWFLNSQ"/>
      <point x="803" y="430" type="curve" name="JQBTZGTV"/>
      <point x="691" y="450" name="YEJIUJSB"/>
      <point x="586" y="458" name="TYGASFHN"/>
      <point x="491" y="453" type="curve" smooth="yes" name="TAFJWVHT"/>
      <point x="387" y="447" name="VECPLYFN"/>
      <point x="239" y="426" name="NLVQHROW"/>
      <point x="154" y="356" type="curve" smooth="yes" name="ULOZTXDX"/>
      <point x="68" y="286" name="AEIJIALB"/>
      <point x="103" y="215" name="HGUJSYED"/>
      <point x="196" y="220" type="curve" smooth="yes" name="BPNJRIIU"/>
      <point x="205" y="220" name="GYSHJTTR"/>
      <point x="213" y="221" name="GKRIEZNG"/>
      <point x="222" y="221" type="curve" name="YZXGCWDI"/>
      <point x="194" y="153" name="FXZNSIMA"/>
      <point x="175" y="70" name="DISNICQE"/>
      <point x="167" y="-27" type="curve" name="KCFECNTC"/>
      <point x="204" y="-26" name="VEERDOYW"/>
      <point x="245" y="-26" name="CINNBUNQ"/>
    </contour>
    <contour>
      <point x="269" y="336" type="curve" smooth="yes" name="EFVDUPAZ"/>
      <point x="241" y="335" name="JILBSVVU"/>
      <point x="238" y="353" name="TFYGWCDP"/>
      <point x="263" y="374" type="curve" smooth="yes" name="GHCBFLYK"/>
      <point x="288" y="394" name="ZIDCXQMY"/>
      <point x="331" y="408" name="YAIOMJBK"/>
      <point x="364" y="411" type="curve" smooth="yes" name="IFHLOQFR"/>
      <point x="370" y="411" name="NRDROCZA"/>
      <point x="375" y="411" name="MLWHJCYR"/>
      <point x="380" y="411" type="curve" name="ERLGSNGY"/>
      <point x="347" y="392" name="XUWTYWXP"/>
      <point x="317" y="367" name="BFRPRJOC"/>
      <point x="292" y="337" type="curve" name="CGEACANI"/>
      <point x="284" y="337" name="UCPAQPWX"/>
      <point x="276" y="337" name="OPMWTSVI"/>
    </contour>
  </outline>
</glyph>
<glyph name="onesuperior" format="2">
  <advance width="240"/>
  <unicode hex="00B9"/>
  <outline>
    <contour>
      <point x="473" y="466" type="curve" name="LGTCOXJT"/>
      <point x="403" y="474" name="CXKUJLQW"/>
      <point x="341" y="472" name="LJWLOXLH"/>
      <point x="286" y="459" type="curve" name="PXAALMQR"/>
      <point x="256" y="449" name="DEAPKAFH"/>
      <point x="228" y="435" name="MIGDYJGX"/>
      <point x="205" y="415" type="curve" name="DUPPVZPZ"/>
      <point x="225" y="421" name="VQDIGQZN"/>
      <point x="246" y="425" name="DKJTEAYE"/>
      <point x="267" y="429" type="curve" name="VCWERRRN"/>
      <point x="207" y="381" name="MLHYKVCK"/>
      <point x="170" y="295" name="EJPZGNAF"/>
      <point x="161" y="174" type="curve" name="EUMYXOSR"/>
      <point x="192" y="176" name="IKIQTHIR"/>
      <point x="225" y="174" name="QTNTSGNO"/>
      <point x="262" y="167" type="curve" name="EONATQBD"/>
      <point x="276" y="344" name="EUEDITTD"/>
      <point x="348" y="446" name="YXTTGIIN"/>
    </contour>
  </outline>
</glyph>
<glyph name="guillemetright" format="2">
  <advance width="549"/>
  <unicode hex="00BB"/>
  <outline>
    <contour>
      <point x="513" y="151" type="curve" name="AMPZHCJL"/>
      <point x="535" y="202" name="RFOQXAYN"/>
      <point x="565" y="245" name="XQIZNOTS"/>
      <point x="601" y="276" type="curve" name="IEPGGYUR"/>
      <point x="556" y="324" name="SHKCWJNY"/>
      <point x="525" y="354" name="ZNEBJOIX"/>
      <point x="506" y="364" type="curve" name="JASISLUR"/>
      <point x="451" y="355" name="ZTDLJXIM"/>
      <point x="402" y="334" name="LBAPQICY"/>
      <point x="364" y="302" type="curve" name="BMBDOPEY"/>
      <point x="383" y="285" name="RCNSRXFQ"/>
      <point x="406" y="263" name="NLEWGGBM"/>
      <point x="432" y="236" type="curve" name="EKDAQRQW"/>
      <point x="374" y="219" name="OJJQKEIY"/>
      <point x="320" y="195" name="EKIVNDMJ"/>
      <point x="269" y="167" type="curve" name="NYRGEHTE"/>
      <point x="247" y="114" name="MGBPCGFF"/>
      <point x="233" y="45" name="QHURZNDH"/>
      <point x="227" y="-31" type="curve" name="IJGFQMVP"/>
      <point x="308" y="48" name="UGDQJBEO"/>
      <point x="405" y="110" name="IDAHSBQU"/>
    </contour>
    <contour>
      <point x="234" y="175" type="curve" name="TOEAXZMP"/>
      <point x="256" y="226" name="AMLSDUGV"/>
      <point x="287" y="269" name="TAIPUILQ"/>
      <point x="323" y="300" type="curve" name="MPCEJJNR"/>
      <point x="289" y="332" name="VXVPRBOW"/>
      <point x="269" y="345" name="VXASQSOC"/>
      <point x="262" y="340" type="curve" name="QUIYNEWU"/>
      <point x="207" y="331" name="UYVHYRXZ"/>
      <point x="158" y="310" name="VLBFVHOJ"/>
      <point x="119" y="278" type="curve" name="BPYLQXJD"/>
      <point x="132" y="270" name="ZTCTPDAE"/>
      <point x="150" y="256" name="TBPXMZNP"/>
      <point x="170" y="237" type="curve" name="QXHKDTWW"/>
      <point x="118" y="211" name="YWCHJDXE"/>
      <point x="69" y="179" name="LISOLNGB"/>
      <point x="25" y="143" type="curve" name="PDJOIIHT"/>
      <point x="3" y="89" name="JXHKESXU"/>
      <point x="-12" y="21" name="CQWOPOLE"/>
      <point x="-18" y="-55" type="curve" name="DKPGHRQG"/>
      <point x="52" y="39" name="GXTPBFTL"/>
      <point x="138" y="118" name="FAHKLNOV"/>
    </contour>
  </outline>
</glyph>
<glyph name="Eth" format="2">
  <advance width="489"/>
  <unicode hex="00D0"/>
  <outline>
    <contour>
      <point x="13" y="-41" type="curve" name="NVUOQRNF"/>
      <point x="63" y="-32" name="JCJJQJPD"/>
      <point x="118" y="-28" name="XNFTDCCO"/>
      <point x="174" y="-27" type="curve" smooth="yes" name="IFGWMAGF"/>
      <point x="311" y="-26" name="IYIUZPYX"/>
      <point x="436" y="150" name="LQTIYNVY"/>
      <point x="534" y="287" type="curve" smooth="yes" name="DAJNLXCP"/>
      <point x="631" y="424" name="JPGTNJDG"/>
      <point x="651" y="455" name="VCQVNXLM"/>
      <point x="514" y="454" type="curve" smooth="yes" name="WZJPHOYF"/>
      <point x="458" y="453" name="QVBEFGDR"/>
      <point x="403" y="449" name="JSKLHKFI"/>
      <point x="353" y="440" type="curve" name="DNJGBOKW"/>
      <point x="275" y="427" name="THRZDEMU"/>
      <point x="208" y="395" name="XWNTHAZL"/>
      <point x="157" y="345" type="curve" name="ZJCEDFZF"/>
      <point x="143" y="343" name="OWFCIGKS"/>
      <point x="128" y="340" name="IFDEPHHU"/>
      <point x="114" y="336" type="curve" name="YJRBWZPC"/>
      <point x="84" y="307" name="EZMAGKZD"/>
      <point x="57" y="270" name="EPUSQCWJ"/>
      <point x="37" y="227" type="curve" name="SNYGWNKY"/>
      <point x="51" y="230" name="YNJGMRDZ"/>
      <point x="65" y="233" name="JFLIFTXG"/>
      <point x="80" y="236" type="curve" name="DJMEKYTW"/>
      <point x="44" y="163" name="RPUVFPLZ"/>
      <point x="21" y="70" name="ZCONRVRO"/>
    </contour>
    <contour>
      <point x="386" y="411" type="curve" smooth="yes" name="AAWJEPAY"/>
      <point x="457" y="411" name="LWVYNEDC"/>
      <point x="448" y="379" name="PNRGFNKH"/>
      <point x="396" y="305" type="curve" smooth="yes" name="PASUJKOG"/>
      <point x="343" y="231" name="EQZAZTPX"/>
      <point x="275" y="154" name="MBZEXWRM"/>
      <point x="204" y="153" type="curve" smooth="yes" name="FLSLCELE"/>
      <point x="189" y="153" name="ZDXRVAYJ"/>
      <point x="173" y="152" name="ZCKILIND"/>
      <point x="158" y="152" type="curve" name="HJWSSYUU"/>
      <point x="168" y="187" name="QZTLGFRB"/>
      <point x="180" y="220" name="AHHRBSFX"/>
      <point x="195" y="249" type="curve" name="VLYTGQWJ"/>
      <point x="222" y="250" name="AALWCPRA"/>
      <point x="252" y="251" name="FYTSHMFS"/>
      <point x="282" y="249" type="curve" name="NWKPUIZR"/>
      <point x="303" y="292" name="WNWSXNQA"/>
      <point x="329" y="330" name="JRKYTNAC"/>
      <point x="360" y="359" type="curve" name="CWGLQEXN"/>
      <point x="330" y="360" name="CTVWRVCL"/>
      <point x="300" y="360" name="HYYPYAMH"/>
      <point x="272" y="358" type="curve" name="XEMDVKYO"/>
      <point x="292" y="378" name="OCZHMEEB"/>
      <point x="316" y="395" name="WCMISMAY"/>
      <point x="340" y="409" type="curve" name="QRZOVABO"/>
      <point x="355" y="410" name="BLGUWJWB"/>
      <point x="371" y="411" name="JXTEBUYD"/>
    </contour>
  </outline>
</glyph>
<glyph name="germandbls" format="2">
  <advance width="420"/>
  <unicode hex="00DF"/>
  <outline>
    <contour>
      <point x="291" y="214" type="curve" name="KVPRTYMT"/>
      <point x="271" y="164" name="LGZTXUIX"/>
      <point x="228" y="127" name="IFWKAJYD"/>
      <point x="169" y="143" type="curve" name="SATCOXMO"/>
      <point x="156" y="92" name="ZZUGCVIK"/>
      <point x="146" y="32" name="KMOCCUOY"/>
      <point x="141" y="-31" type="curve" name="ZRFPVOSI"/>
      <point x="286" y="-59" name="THOWUSZT"/>
      <point x="369" y="60" name="AAMRDCDN"/>
      <point x="418" y="193" type="curve" smooth="yes" name="ULGRAMKY"/>
      <point x="445" y="268" name="LKGXGOUB"/>
      <point x="448" y="325" name="EWXFUVQW"/>
      <point x="414" y="355" type="curve" name="UBFBJARS"/>
      <point x="459" y="374" name="SCMRSWEB"/>
      <point x="502" y="398" name="SNUCPNYT"/>
      <point x="538" y="422" type="curve" smooth="yes" name="OZCQWIVT"/>
      <point x="619" y="475" name="WZPACOHS"/>
      <point x="623" y="495" name="THDPLDDS"/>
      <point x="530" y="493" type="curve" smooth="yes" name="FIEQVXON"/>
      <point x="426" y="491" name="VZXHIULD"/>
      <point x="287" y="470" name="JLVGBQJV"/>
      <point x="198" y="403" type="curve" smooth="yes" name="CGZNZAAV"/>
      <point x="86" y="321" name="UCDDRSHU"/>
      <point x="19" y="167" name="XIXAGVJA"/>
      <point x="1" y="-51" type="curve" name="IZMDVDRP"/>
      <point x="34" y="-43" name="OHWDPBQP"/>
      <point x="70" y="-37" name="QDEEKPNJ"/>
      <point x="107" y="-34" type="curve" name="EWAQGDQX"/>
      <point x="124" y="181" name="ZCYERIYL"/>
      <point x="191" y="336" name="FMMNZNIH"/>
      <point x="303" y="418" type="curve" smooth="yes" name="VFXDMUTS"/>
      <point x="336" y="443" name="DBKECQSE"/>
      <point x="377" y="454" name="FAHAJTPJ"/>
      <point x="405" y="454" type="curve" smooth="yes" name="JARZFFCY"/>
      <point x="433" y="455" name="CTZTNGXF"/>
      <point x="433" y="445" name="XNPFTGFL"/>
      <point x="404" y="425" type="curve" smooth="yes" name="PMBAHFCX"/>
      <point x="375" y="405" name="WEFDRMNL"/>
      <point x="339" y="390" name="XCGDCGGZ"/>
      <point x="294" y="383" type="curve" name="UCEEAFBX"/>
      <point x="266" y="355" name="VEHFSNXX"/>
      <point x="242" y="321" name="YUSVAEIU"/>
      <point x="221" y="283" type="curve" name="SNYFCQWS"/>
      <point x="299" y="296" name="ACXUPPLK"/>
      <point x="307" y="259" name="RFPTXQWH"/>
      <point x="291" y="214" type="curve" name="DWABCNNO"/>
      <point x="291" y="214" name="ASUKKWOV"/>
      <point x="291" y="214" name="SMYBZPTY"/>
    </contour>
  </outline>
</glyph>
<glyph name="ae" format="2">
  <advance width="664"/>
  <unicode hex="00E6"/>
  <outline>
    <contour>
      <point x="214" y="-6" type="curve" name="EXBRUSUW"/>
      <point x="251" y="-5" name="BGMOIYMO"/>
      <point x="291" y="-5" name="RQEWHUYW"/>
      <point x="331" y="-7" type="curve" name="EBMKJNVB"/>
      <point x="333" y="9" name="BOZEPIOX"/>
      <point x="334" y="24" name="ZLACZSPA"/>
      <point x="337" y="39" type="curve" name="VXFXOUQX"/>
      <point x="359" y="0" name="CZOKEUHQ"/>
      <point x="395" y="-28" name="IJAECNZE"/>
      <point x="443" y="-33" type="curve" smooth="yes" name="TCZPSKQR"/>
      <point x="479" y="-36" name="YOLJOXMJ"/>
      <point x="520" y="-26" name="FNWNPHON"/>
      <point x="573" y="-3" type="curve" name="TISOQHRY"/>
      <point x="580" y="53" name="YIALQMIU"/>
      <point x="592" y="104" name="TLRKDEXM"/>
      <point x="609" y="146" type="curve" name="NFZMXVYV"/>
      <point x="477" y="117" name="MFNZZWNA"/>
      <point x="388" y="134" name="RNSFECUG"/>
      <point x="391" y="198" type="curve" name="GWAIGFMN"/>
      <point x="471" y="195" name="ECVVFFKO"/>
      <point x="557" y="185" name="EBUZVLTM"/>
      <point x="645" y="170" type="curve" name="SBKFMNLH"/>
      <point x="749" y="319" name="QPYIINQG"/>
      <point x="810" y="344" name="RBGRYLOK"/>
      <point x="695" y="355" type="curve" smooth="yes" name="DMLVDINQ"/>
      <point x="657" y="358" name="TLHSCASW"/>
      <point x="610" y="358" name="JNZFWKRM"/>
      <point x="563" y="352" type="curve" name="CRRMMSQF"/>
      <point x="571" y="355" name="ERDQLKDA"/>
      <point x="581" y="357" name="VRINKVPL"/>
      <point x="589" y="359" type="curve" name="SVCREBML"/>
      <point x="550" y="360" name="MXJKJTIB"/>
      <point x="509" y="361" name="HGEKEJCZ"/>
      <point x="472" y="360" type="curve" name="IXQTDRQY"/>
      <point x="464" y="357" name="NMIIICGK"/>
      <point x="456" y="355" name="ZFHTGDPH"/>
      <point x="447" y="354" type="curve" name="OUFFDSPY"/>
      <point x="447" y="359" name="QEGDEHRN"/>
      <point x="432" y="359" name="RABHWRRR"/>
      <point x="400" y="356" type="curve" smooth="yes" name="BMKWZTMY"/>
      <point x="311" y="348" name="YZGQJVRP"/>
      <point x="134" y="331" name="IMVDFUKF"/>
      <point x="52" y="215" type="curve" smooth="yes" name="LREKFZXT"/>
      <point x="-29" y="101" name="JCSWHTVP"/>
      <point x="39" y="-38" name="YLWESIKI"/>
      <point x="128" y="-29" type="curve" smooth="yes" name="MSHHBTME"/>
      <point x="160" y="-26" name="UJBMLQJZ"/>
      <point x="191" y="-4" name="RWBYIZVR"/>
      <point x="218" y="30" type="curve" name="SQWMDPVC"/>
      <point x="217" y="18" name="RMDXEJZL"/>
      <point x="215" y="6" name="BXAXENWV"/>
    </contour>
    <contour>
      <point x="173" y="136" type="curve" name="NBOCMSZI"/>
      <point x="129" y="133" name="NZHUTBQT"/>
      <point x="117" y="180" name="NAOUKMSV"/>
      <point x="155" y="234" type="curve" smooth="yes" name="JVWUYVXV"/>
      <point x="194" y="289" name="QWIACXPK"/>
      <point x="256" y="312" name="FWCWWDTI"/>
      <point x="299" y="315" type="curve" smooth="yes" name="GUZYVHIF"/>
      <point x="342" y="319" name="BLAVBGUU"/>
      <point x="335" y="300" name="YDMEMLPO"/>
      <point x="297" y="246" type="curve" smooth="yes" name="BPMGWQQB"/>
      <point x="259" y="193" name="RXWGWPYI"/>
      <point x="216" y="140" name="IBAUJFNN"/>
      <point x="173" y="136" type="curve" name="WCWCGRXJ"/>
      <point x="173" y="136" name="OSHEIJXP"/>
      <point x="173" y="136" name="IHRIKFBR"/>
    </contour>
    <contour>
      <point x="561" y="314" type="curve" name="YKNGWNKZ"/>
      <point x="592" y="311" name="WKFWWOUX"/>
      <point x="603" y="300" name="WVIRESGX"/>
      <point x="589" y="273" type="curve" name="MUOAOTAT"/>
      <point x="543" y="278" name="ECOESPPU"/>
      <point x="497" y="282" name="IOYAIZCX"/>
      <point x="453" y="284" type="curve" name="JTPQDUUJ"/>
      <point x="491" y="309" name="NZJFHDTO"/>
      <point x="532" y="316" name="XPZLVRFM"/>
      <point x="561" y="314" type="curve" name="XJPWGKCJ"/>
      <point x="561" y="314" name="HFADNTPP"/>
      <point x="561" y="314" name="WMKKNTAE"/>
    </contour>
  </outline>
</glyph>
<glyph name="thorn" format="2">
  <advance width="438"/>
  <unicode hex="00FE"/>
  <outline>
    <contour>
      <point x="35" y="-159" type="curve" name="SPAHTJPL"/>
      <point x="41" y="-80" name="DIIITBHL"/>
      <point x="53" y="-6" name="YXFONMQE"/>
      <point x="70" y="59" type="curve" name="PLLQVCAN"/>
      <point x="85" y="32" name="YLPWFKYD"/>
      <point x="111" y="16" name="XGHNQSKJ"/>
      <point x="145" y="15" type="curve" smooth="yes" name="TPTRAUNZ"/>
      <point x="242" y="14" name="JDVPDODB"/>
      <point x="355" y="127" name="CWTJUYAO"/>
      <point x="431" y="246" type="curve" smooth="yes" name="QVYRCMVF"/>
      <point x="508" y="366" name="KRAFQFER"/>
      <point x="501" y="418" name="LIHSXLPW"/>
      <point x="405" y="419" type="curve" smooth="yes" name="BNRCMGKF"/>
      <point x="371" y="420" name="FTNFXEMI"/>
      <point x="329" y="412" name="DLKKXYMX"/>
      <point x="289" y="398" type="curve" name="QYICNFRJ"/>
      <point x="343" y="435" name="UHKXXUTJ"/>
      <point x="408" y="459" name="JXYUBJEN"/>
      <point x="480" y="470" type="curve" name="PTNMHOQT"/>
      <point x="444" y="466" name="SRSYDZHD"/>
      <point x="407" y="461" name="STCQUIBG"/>
      <point x="375" y="454" type="curve" name="IGJPHGSE"/>
      <point x="110" y="412" name="ZHCUXJGC"/>
      <point x="-41" y="198" name="NOJLBKZJ"/>
      <point x="-70" y="-176" type="curve" name="HAXEMUJW"/>
      <point x="-38" y="-168" name="YHALPBCB"/>
      <point x="-1" y="-162" name="WZIWKWPG"/>
    </contour>
    <contour>
      <point x="173" y="160" type="curve" name="TWPZNNVN"/>
      <point x="128" y="160" name="KEUESRVH"/>
      <point x="117" y="205" name="PSNSAOAH"/>
      <point x="153" y="262" type="curve" smooth="yes" name="GROSUBFO"/>
      <point x="190" y="318" name="AXYBANYT"/>
      <point x="248" y="348" name="QBIVLLFI"/>
      <point x="293" y="348" type="curve" smooth="yes" name="TEZWMNCJ"/>
      <point x="339" y="348" name="QJNBOHTV"/>
      <point x="340" y="319" name="VTKTTEFX"/>
      <point x="303" y="262" type="curve" smooth="yes" name="CPQNSLUJ"/>
      <point x="266" y="205" name="LNRKFEHH"/>
      <point x="218" y="161" name="FKVURWYY"/>
      <point x="173" y="160" type="curve" name="PVZRSNRC"/>
      <point x="173" y="160" name="VMKYCTMQ"/>
      <point x="173" y="160" name="ZGFBSIXF"/>
    </contour>
  </outline>
</glyph>
<glyph name="dotlessi" format="2">
  <advance width="195"/>
  <unicode hex="0131"/>
  <outline>
    <contour>
      <point x="-13" y="-30" type="curve" name="CMTDOOZY"/>
      <point x="20" y="-22" name="KOSNGAUU"/>
      <point x="60" y="-22" name="UESPHVEK"/>
      <point x="104" y="-30" type="curve" name="PKACHXDX"/>
      <point x="121" y="188" name="FCRQOQCI"/>
      <point x="208" y="312" name="NWMOEXNX"/>
      <point x="362" y="336" type="curve" name="YIZWYWFA"/>
      <point x="319" y="343" name="DDEIOCHZ"/>
      <point x="278" y="343" name="HRFGLQSY"/>
      <point x="246" y="336" type="curve" name="TVJRQXCS"/>
      <point x="92" y="312" name="UZHJCNXY"/>
      <point x="4" y="188" name="CLYJKCXH"/>
    </contour>
  </outline>
</glyph>
<glyph name="oe" format="2">
  <advance width="668"/>
  <unicode hex="0153"/>
  <outline>
    <contour>
      <point x="144" y="-30" type="curve" name="EIHUMGAE"/>
      <point x="195" y="-26" name="HRYQEHCT"/>
      <point x="243" y="14" name="AQDSTUKJ"/>
      <point x="289" y="67" type="curve" name="NOYEALHR"/>
      <point x="336" y="-25" name="VVASDYSM"/>
      <point x="449" y="-57" name="ZIZOOCPK"/>
      <point x="576" y="-1" type="curve" name="NWHLHFOC"/>
      <point x="584" y="55" name="LUZQDWFZ"/>
      <point x="597" y="104" name="EVHTBNMB"/>
      <point x="614" y="147" type="curve" name="CAVQNIJB"/>
      <point x="482" y="118" name="CAOOMILN"/>
      <point x="392" y="135" name="FIOONIKX"/>
      <point x="396" y="199" type="curve" name="DQVJMJRN"/>
      <point x="476" y="196" name="AYXRDJBM"/>
      <point x="562" y="186" name="EGJOQTCO"/>
      <point x="649" y="171" type="curve" name="EGMAXOHD"/>
      <point x="754" y="319" name="LETKWJFW"/>
      <point x="816" y="346" name="ZHANTQAC"/>
      <point x="686" y="357" type="curve" smooth="yes" name="GBNVZMGW"/>
      <point x="630" y="362" name="ZXFQRCTC"/>
      <point x="557" y="361" name="SRETHROV"/>
      <point x="487" y="348" type="curve" name="RRQVSKNK"/>
      <point x="489" y="362" name="XTJNBUUT"/>
      <point x="468" y="363" name="CMNNADLL"/>
      <point x="418" y="359" type="curve" smooth="yes" name="DPQVAJFT"/>
      <point x="313" y="350" name="UWXJUPPI"/>
      <point x="131" y="327" name="OWITYRYB"/>
      <point x="52" y="215" type="curve" smooth="yes" name="NNMNXSBO"/>
      <point x="-26" y="104" name="SEIFJEVU"/>
      <point x="39" y="-38" name="FZBQTQMY"/>
      <point x="144" y="-30" type="curve" name="JXYKCDXI"/>
      <point x="144" y="-30" name="LNBHSRCI"/>
      <point x="144" y="-30" name="VTWJYOFO"/>
    </contour>
    <contour>
      <point x="566" y="314" type="curve" name="NUDGZTEG"/>
      <point x="597" y="312" name="GGZQXTQJ"/>
      <point x="608" y="301" name="ZCVYUWGR"/>
      <point x="594" y="273" type="curve" name="SOXSFPIO"/>
      <point x="547" y="279" name="MPVBFTKP"/>
      <point x="501" y="283" name="GSTUHZTI"/>
      <point x="457" y="285" type="curve" name="QRPQJXOE"/>
      <point x="496" y="310" name="JDGREVIE"/>
      <point x="537" y="316" name="ZAZKMJFQ"/>
      <point x="566" y="314" type="curve" name="UGTSKOJT"/>
      <point x="566" y="314" name="JOXVVWTG"/>
      <point x="566" y="314" name="HZFNDNAV"/>
    </contour>
    <contour>
      <point x="174" y="138" type="curve" name="ZSWGLNFN"/>
      <point x="131" y="134" name="EEASVGNT"/>
      <point x="118" y="182" name="ALZQFSRN"/>
      <point x="155" y="234" type="curve" smooth="yes" name="ZVIMYGIO"/>
      <point x="192" y="287" name="KCNXSRAL"/>
      <point x="256" y="312" name="URYMJSMT"/>
      <point x="300" y="315" type="curve" smooth="yes" name="TBEZBHJV"/>
      <point x="343" y="319" name="SKWOZQKF"/>
      <point x="337" y="299" name="QIKUHHRV"/>
      <point x="300" y="246" type="curve" smooth="yes" name="XEEOIHOA"/>
      <point x="263" y="194" name="CRRHGPTN"/>
      <point x="218" y="141" name="RBXODILK"/>
      <point x="174" y="138" type="curve" name="CNZVJVQZ"/>
      <point x="174" y="138" name="MBBVWTZY"/>
      <point x="174" y="138" name="GBCNWNTI"/>
    </contour>
  </outline>
</glyph>
<glyph name="circumflex" format="2">
  <advance width="398"/>
  <unicode hex="02C6"/>
  <anchor x="-82.0" y="517" name="top"/>
  <anchor x="198.0" y="517" name="center"/>
  <outline>
    <contour>
      <point x="270" y="401" type="curve" name="UKXVJAQE"/>
      <point x="304" y="409" name="KNQDVBNZ"/>
      <point x="341" y="414" name="ELJLROQX"/>
      <point x="379" y="416" type="curve" name="GPIORJUL"/>
      <point x="393" y="452" name="RGDQBEPQ"/>
      <point x="414" y="483" name="LUZOUQGR"/>
      <point x="439" y="505" type="curve" name="DSFVSTEF"/>
      <point x="438" y="483" name="MDUHWRCP"/>
      <point x="443" y="452" name="LWWEZNOO"/>
      <point x="452" y="416" type="curve" name="IEALSXMQ"/>
      <point x="493" y="414" name="MSFREYGF"/>
      <point x="537" y="409" name="FOIDDUZU"/>
      <point x="582" y="401" type="curve" name="KOTIYKVA"/>
      <point x="553" y="490" name="VXKZDIAI"/>
      <point x="551" y="541" name="YSIFAMDY"/>
      <point x="577" y="553" type="curve" name="AYWOCWGL"/>
      <point x="534" y="556" name="YIQLJJZK"/>
      <point x="491" y="556" name="WZBBYYJC"/>
      <point x="453" y="553" type="curve" name="JSJLGCUN"/>
      <point x="365" y="541" name="SHOMMBNL"/>
      <point x="303" y="490" name="APFKIAHA"/>
    </contour>
  </outline>
</glyph>
<glyph name="quoteleft" format="2">
  <advance width="211"/>
  <unicode hex="2018"/>
  <outline>
    <contour>
      <point x="457" y="467" type="curve" name="HLXPEQKQ"/>
      <point x="418" y="473" name="AVTNCTNG"/>
      <point x="383" y="476" name="JOQEWDWT"/>
      <point x="350" y="473" type="curve" name="HAZXCUFR"/>
      <point x="250" y="459" name="MCDQXFIT"/>
      <point x="185" y="389" name="ZLFVQKIT"/>
      <point x="161" y="268" type="curve" name="XPYQPAEP"/>
      <point x="196" y="275" name="HGWKVCBS"/>
      <point x="235" y="277" name="FEQJNJQO"/>
      <point x="277" y="273" type="curve" name="UDBFSWNQ"/>
      <point x="299" y="390" name="QQJYXYYF"/>
      <point x="360" y="456" name="DLAIADPA"/>
    </contour>
  </outline>
</glyph>
<glyph name="quotedblleft" format="2">
  <advance width="366"/>
  <unicode hex="201C"/>
  <outline>
    <contour>
      <point x="448" y="478" type="curve" name="SKOSAHYW"/>
      <point x="414" y="478" name="KSSZCFRU"/>
      <point x="382" y="476" name="JGJUTUSH"/>
      <point x="351" y="471" type="curve" name="OHBYPORB"/>
      <point x="252" y="456" name="UDZUGRCJ"/>
      <point x="188" y="385" name="KHDIORDR"/>
      <point x="164" y="263" type="curve" name="KVLEQFKK"/>
      <point x="198" y="271" name="XMMWFIFX"/>
      <point x="235" y="276" name="PXHRMFYK"/>
      <point x="273" y="278" type="curve" name="MLXRPJAP"/>
      <point x="293" y="397" name="LUQLWRWV"/>
      <point x="353" y="465" name="NFSACYTW"/>
    </contour>
    <contour>
      <point x="615" y="463" type="curve" name="OZFBZTLS"/>
      <point x="576" y="470" name="NUEAFZUF"/>
      <point x="539" y="474" name="TBJTCWNJ"/>
      <point x="504" y="476" type="curve" name="DMLIPJSW"/>
      <point x="402" y="464" name="ZSGXWOSY"/>
      <point x="336" y="397" name="RVMXXDKI"/>
      <point x="309" y="279" type="curve" name="EZHARQNV"/>
      <point x="349" y="279" name="XGONZVBP"/>
      <point x="391" y="275" name="YFIVXQME"/>
      <point x="435" y="270" type="curve" name="CXHCZRBU"/>
      <point x="457" y="386" name="GJGSAIGD"/>
      <point x="518" y="452" name="UMHSQGKC"/>
    </contour>
  </outline>
</glyph>
<glyph name="quotedblright" format="2">
  <advance width="366"/>
  <unicode hex="201D"/>
  <outline>
    <contour>
      <point x="314" y="279" type="curve" name="NZYGFBJG"/>
      <point x="348" y="279" name="CBNJFSAY"/>
      <point x="383" y="277" name="DDCYOLSX"/>
      <point x="421" y="272" type="curve" name="XTXQYXXG"/>
      <point x="448" y="389" name="FOAAMMGQ"/>
      <point x="517" y="453" name="KBNEWMPF"/>
      <point x="620" y="463" type="curve" name="XSOHGEIJ"/>
      <point x="575" y="471" name="GYABYALI"/>
      <point x="531" y="476" name="CSNTMVVD"/>
      <point x="490" y="478" type="curve" name="YQGUZVMY"/>
      <point x="395" y="465" name="BNXFQBPZ"/>
      <point x="335" y="397" name="JTSWZTQF"/>
    </contour>
    <contour>
      <point x="169" y="263" type="curve" name="IKNSLRJI"/>
      <point x="198" y="271" name="VBDDSRPL"/>
      <point x="229" y="275" name="LTUUQWWR"/>
      <point x="261" y="277" type="curve" name="JMURHTKC"/>
      <point x="287" y="396" name="VPIYFFEI"/>
      <point x="352" y="465" name="KBSGNEZE"/>
      <point x="453" y="478" type="curve" name="DFXOQFFQ"/>
      <point x="413" y="478" name="ONKBEKDA"/>
      <point x="376" y="475" name="KUCBEZJL"/>
      <point x="340" y="469" type="curve" name="HBHUVTSO"/>
      <point x="246" y="454" name="AVSRPIEA"/>
      <point x="188" y="384" name="EXKGOQCO"/>
    </contour>
  </outline>
</glyph>
<glyph name="guilsinglleft" format="2">
  <advance width="301"/>
  <unicode hex="2039"/>
  <outline>
    <contour>
      <point x="16" y="157" type="curve" name="HPURUJWS"/>
      <point x="59" y="117" name="CXNMTRXI"/>
      <point x="126" y="46" name="SDNTJBIA"/>
      <point x="209" y="-49" type="curve" name="WJCYSQIE"/>
      <point x="215" y="28" name="DMGEQZFD"/>
      <point x="230" y="98" name="QFSAUTDH"/>
      <point x="252" y="152" type="curve" name="NHXIRIRP"/>
      <point x="217" y="189" name="HPKLFLBH"/>
      <point x="185" y="219" name="NBVDXOSC"/>
      <point x="160" y="241" type="curve" name="IZZJMYUJ"/>
      <point x="216" y="263" name="VZMHJVVH"/>
      <point x="281" y="278" name="DQQALLVP"/>
      <point x="348" y="286" type="curve" name="DOYVXWSE"/>
      <point x="386" y="316" name="KDDEIONX"/>
      <point x="434" y="338" name="HMJKAPUH"/>
      <point x="488" y="346" type="curve" name="TQEVIEOC"/>
      <point x="342" y="353" name="TSJSLMXB"/>
      <point x="211" y="331" name="MMQPCQGP"/>
      <point x="104" y="282" type="curve" name="DCVGYPFC"/>
      <point x="68" y="251" name="IBBELAXM"/>
      <point x="37" y="208" name="DPUKFYTV"/>
    </contour>
  </outline>
</glyph>
<glyph name="fraction" format="2">
  <advance width="402"/>
  <unicode hex="2044"/>
  <outline>
    <contour>
      <point x="-27" y="-48" type="curve" name="EHETETDC"/>
      <point x="1" y="-41" name="EHWFLKLQ"/>
      <point x="30" y="-36" name="IBKRCMDZ"/>
      <point x="60" y="-34" type="curve" name="SQFAOMXR"/>
      <point x="169" y="261" name="MSKGDTKX"/>
      <point x="383" y="420" name="RRFCHHDH"/>
      <point x="690" y="433" type="curve" name="QIXEMUVI"/>
      <point x="653" y="440" name="DAJLJXMU"/>
      <point x="617" y="444" name="WLGLQKZM"/>
      <point x="583" y="447" type="curve" name="WAUTEDAO"/>
      <point x="282" y="425" name="XHGYMSIF"/>
      <point x="75" y="256" name="EKPUKGCV"/>
    </contour>
  </outline>
</glyph>
<glyph name="Euro" format="2">
  <advance width="428"/>
  <unicode hex="20AC"/>
  <outline>
    <contour>
      <point x="28" y="187" type="curve" name="QHWKPAVS"/>
      <point x="45" y="191" name="CSRJTIUQ"/>
      <point x="62" y="194" name="UQSUQXMT"/>
      <point x="79" y="197" type="curve" name="NJXLAEEU"/>
      <point x="56" y="47" name="BYHEKQYC"/>
      <point x="174" y="-77" name="OEIGUFRU"/>
      <point x="360" y="-30" type="curve" name="AYKJAXAU"/>
      <point x="366" y="36" name="SNNKLQBU"/>
      <point x="378" y="97" name="JYWJKETT"/>
      <point x="394" y="149" type="curve" name="GUGNLKXG"/>
      <point x="288" y="114" name="WZQEPFJN"/>
      <point x="214" y="134" name="NOETOZOC"/>
      <point x="205" y="206" type="curve" name="PLBQDTMI"/>
      <point x="246" y="206" name="IRHVGYWY"/>
      <point x="292" y="203" name="SPHLQSCH"/>
      <point x="336" y="198" type="curve" name="FJNCVFLD"/>
      <point x="352" y="229" name="ZMLEAUMP"/>
      <point x="369" y="258" name="IBPSYPOY"/>
      <point x="389" y="283" type="curve" name="OSFTOLNW"/>
      <point x="332" y="290" name="OWOHQLOH"/>
      <point x="277" y="294" name="TFLZFNPK"/>
      <point x="227" y="292" type="curve" name="AHOVSJKD"/>
      <point x="229" y="297" name="IWXWNIUX"/>
      <point x="232" y="303" name="EECFOBEY"/>
      <point x="236" y="309" type="curve" smooth="yes" name="EIMPCIUX"/>
      <point x="240" y="314" name="XLOLFWLE"/>
      <point x="244" y="320" name="HKTCAESR"/>
      <point x="249" y="324" type="curve" name="GKZNLXZF"/>
      <point x="300" y="326" name="RXZPLEYW"/>
      <point x="357" y="322" name="PORAZHLO"/>
      <point x="414" y="314" type="curve" name="YBNTIPPT"/>
      <point x="436" y="338" name="WTORXZAE"/>
      <point x="459" y="357" name="RMAMUBDY"/>
      <point x="485" y="374" type="curve" name="GKPUANYJ"/>
      <point x="432" y="382" name="AKPRIANS"/>
      <point x="381" y="386" name="EWFDBEHD"/>
      <point x="334" y="386" type="curve" name="LUPZFEKX"/>
      <point x="420" y="424" name="NLKSBBFS"/>
      <point x="507" y="424" name="MPXLKQXN"/>
      <point x="561" y="385" type="curve" name="KQXJQKJA"/>
      <point x="598" y="408" name="LXMZFJUP"/>
      <point x="641" y="425" name="NZLPUIOV"/>
      <point x="688" y="434" type="curve" name="PNMWCRLQ"/>
      <point x="566" y="476" name="ZUEVPKIY"/>
      <point x="354" y="466" name="TNLQRWHR"/>
      <point x="207" y="377" type="curve" name="TEJVURXX"/>
      <point x="190" y="374" name="PDQEQLUF"/>
      <point x="173" y="370" name="STRSUTWC"/>
      <point x="156" y="367" type="curve" name="ORSSHCHD"/>
      <point x="134" y="349" name="JUGOKDMK"/>
      <point x="113" y="329" name="GPMTOXJV"/>
      <point x="95" y="305" type="curve" name="FUHJVLQT"/>
      <point x="107" y="308" name="DPDOUSWF"/>
      <point x="121" y="311" name="LDXFMLNB"/>
      <point x="133" y="313" type="curve" name="UICOPRJG"/>
      <point x="128" y="308" name="JMGTNQZP"/>
      <point x="125" y="303" name="WDZBIEKJ"/>
      <point x="121" y="297" type="curve" smooth="yes" name="VDYMROBM"/>
      <point x="117" y="292" name="IEKECXKV"/>
      <point x="113" y="287" name="UFSZSQSV"/>
      <point x="111" y="281" type="curve" name="LIMGIZII"/>
      <point x="98" y="279" name="QKDBLGDZ"/>
      <point x="85" y="276" name="EBMFWHUT"/>
      <point x="72" y="273" type="curve" name="UNNFFHMA"/>
      <point x="55" y="248" name="JAOIKZGC"/>
      <point x="41" y="218" name="NNHSZXIN"/>
    </contour>
  </outline>
</glyph>
<glyph name="divisionslash" format="2">
  <advance width="366"/>
  <unicode hex="2215"/>
  <outline>
    <contour>
      <point x="-86" y="-106" type="curve" name="HFBSZEKW"/>
      <point x="-51" y="-99" name="GUYWJYYK"/>
      <point x="-14" y="-93" name="NWLKABCB"/>
      <point x="24" y="-89" type="curve" name="UMEWXAHO"/>
      <point x="138" y="254" name="IVLJJNUN"/>
      <point x="373" y="440" name="OSVUBWLP"/>
      <point x="716" y="459" type="curve" name="YXTBJNSW"/>
      <point x="670" y="467" name="ETZKMZRK"/>
      <point x="625" y="473" name="LHNZONYX"/>
      <point x="582" y="476" type="curve" name="HMQOANBC"/>
      <point x="247" y="446" name="SYNCYEHG"/>
      <point x="20" y="248" name="NSWLFENE"/>
    </contour>
  </outline>
</glyph>
<glyph name="acute.cap" format="2">
  <advance width="288"/>
  <anchor x="-60.0" y="680.0" name="top"/>
  <anchor x="94.0" y="680.0" name="center"/>
  <outline>
    <contour>
      <point x="356" y="519" type="curve" name="FUWFOSSQ"/>
      <point x="387" y="526" name="OPLFDSBG"/>
      <point x="421" y="530" name="YPQGVYAJ"/>
      <point x="458" y="529" type="curve" name="YATTRZID"/>
      <point x="496" y="611" name="KXRSAWSW"/>
      <point x="564" y="654" name="YDJIJGVI"/>
      <point x="657" y="658" type="curve" name="FITHKNMQ"/>
      <point x="610" y="666" name="CZULKJBP"/>
      <point x="565" y="669" name="VBXWAEKY"/>
      <point x="524" y="667" type="curve" name="UCPOJSRN"/>
      <point x="441" y="657" name="YORHXBPC"/>
      <point x="384" y="607" name="MUZRGKHK"/>
    </contour>
  </outline>
</glyph>
<glyph name="grave.cap" format="2">
  <advance width="288"/>
  <anchor x="-60.0" y="680.0" name="top"/>
  <anchor x="194.0" y="680.0" name="center"/>
  <outline>
    <contour>
      <point x="545" y="519" type="curve" name="QTRAPZXE"/>
      <point x="523" y="607" name="HQVDNVEP"/>
      <point x="528" y="657" name="EILWXTSF"/>
      <point x="560" y="667" type="curve" name="SOADHLDZ"/>
      <point x="516" y="669" name="PYAWEGLT"/>
      <point x="476" y="666" name="DLZANGEL"/>
      <point x="440" y="658" type="curve" name="CGTKNFJX"/>
      <point x="408" y="654" name="LPYRIQPF"/>
      <point x="405" y="611" name="ILYMWKVC"/>
      <point x="429" y="529" type="curve" name="VECKJQNH"/>
      <point x="465" y="530" name="JEUWHIXC"/>
      <point x="504" y="526" name="DNWHAVXY"/>
    </contour>
  </outline>
</glyph>
